<?xml version="1.0" encoding="UTF-8" standalone="no"?>
<!-- Created with Inkscape (http://www.inkscape.org/) -->

<svg version="1.1" id="svg2" xml:space="preserve" width="3600" height="2933.3333" viewBox="0 0 3600 2933.3333" sodipodi:docname="shutterstock_2146500273.eps"
  xmlns:inkscape="http://www.inkscape.org/namespaces/inkscape"
  xmlns:sodipodi="http://sodipodi.sourceforge.net/DTD/sodipodi-0.dtd"
  xmlns="http://www.w3.org/2000/svg"
  xmlns:svg="http://www.w3.org/2000/svg">
  <defs id="defs6" />
  <sodipodi:namedview id="namedview4" pagecolor="#ffffff" bordercolor="#666666" borderopacity="1.0" inkscape:pageshadow="2" inkscape:pageopacity="0.0" inkscape:pagecheckerboard="0" />
  <g id="g8" inkscape:groupmode="layer" inkscape:label="ink_ext_XXXXXX" transform="matrix(1.3333333,0,0,-1.3333333,0,2933.3333)">
    <g id="g10" transform="scale(0.1)">
      <path d="m 22793.5,15045.7 c 0,0 576.1,-991 599.2,-1451.9 23,-460.9 23,-829.6 23,-829.6 0,0 760.5,-299.6 1060.1,-760.5 299.6,-460.9 460.9,-1037.1 437.9,-1405.8 -23.1,-368.8 -299.6,-1290.6 -507,-1636.3 -207.4,-345.7 -622.3,-875.7 -1198.4,-1221.4 -576.1,-345.7 -1290.6,-414.8 -1866.7,-437.9 -576.2,-23 -1544.1,253.5 -1544.1,253.5 l -437.9,184.4 c 0,0 -599.1,-484 -921.8,-783.6 -322.6,-299.6 -1405.8,-1037 -1843.7,-1221.4 -437.8,-184.3 -1290.5,-230.4 -1590.1,-253.5 -299.6,-23 -898.8,69.2 -1221.4,115.2 -322.7,46.1 -783.6,207.5 -967.9,345.7 -184.4,138.3 -1313.6,1152.3 -1313.6,1152.3 0,0 -368.8,-599.2 -760.6,-829.6 -391.7,-230.5 -967.88,-507 -1336.62,-530.1 -368.74,-23 -1083.14,138.3 -1290.56,161.3 -207.41,23.1 -645.29,253.5 -921.83,437.9 -276.54,184.4 -921.83,991 -1014.02,1175.3 -92.17,184.4 -368.73,1037.1 -368.73,1037.1 0,0 -553.09,-207.4 -1083.15,-207.4 -530.04,0 -1889.76,115.2 -2373.71,1636.2 -483.97,1521.1 368.74,2258.5 1175.34,2788.6 806.6,530 1912.79,507 1912.79,507 0,0 161.32,1198.4 622.23,1843.6 460.92,645.3 1037.07,1244.5 1981.95,1451.9 944.87,207.4 2074.11,253.5 2512.01,92.2 437.8,-161.3 691.3,-391.8 691.3,-391.8 0,0 507,1037.1 1498,1636.3 991,599.2 2120.2,760.5 2558.1,760.5 437.9,0 1774.5,-507 2120.2,-714.4 345.7,-207.4 1544.1,-783.6 1935.8,-2604.2 0,0 760.6,507 1728.5,437.9 967.9,-69.2 1705.4,-737.5 1705.4,-737.5" style="fill:#ffffff;fill-opacity:1;fill-rule:evenodd;stroke:none" id="path14" />
      <path d="m 24592.7,10027.1 c -91.2,13.4 -252.8,41.3 -272.9,-54.6 15.1,-107.6 148.8,-96.7 218.3,-150.1 -4.4,-77.5 -26.2,-137.5 -40.9,-204.7 -103.8,28.5 -264.3,119.8 -327.6,0 47.9,-102.2 172,-128.2 273,-177.4 -7.7,-87.9 -35.5,-155.6 -68.3,-218.3 -119.1,21.7 -241.4,197.2 -368.4,81.9 38.7,-125.1 171.1,-156.4 259.3,-232 -213,-373.8 -464.6,-709 -791.5,-968.9 -39.3,135.1 -324.9,404.2 -368.4,177.4 -27.7,-143.9 160.4,-191.3 177.4,-327.4 -162.6,-51.2 -264.4,-163.2 -423.1,-218.4 -34.5,142.8 -19.9,334.9 -122.8,409.4 -192.2,-20.4 -76.2,-360.2 -54.6,-491.3 -96.3,-8.2 -150.4,-58.7 -231.9,-81.8 9.6,128.5 -3.1,302.2 -81.9,382.1 -235,13 -122.8,-367.1 -40.9,-436.7 -103.2,-15.1 -186.6,-49.9 -300.2,-54.6 -11.3,145.5 8.8,249.8 -13.7,368.4 -15.8,-2.2 -24.3,3 -27.2,13.7 -181.1,-12 -198.5,-238.3 -177.4,-409.4 -158.1,-46.5 -309.2,-12.9 -477.7,0 -10.1,121 67.8,247 13.7,327.5 -190,12.6 -174.8,-180 -204.7,-327.5 -143.7,-11.8 -241.6,22.2 -368.4,27.3 40.1,137.2 92.4,262.3 122.8,409.4 -232.9,116.9 -260.5,-201.8 -313.9,-354.8 -100.4,-9.5 -163.3,18.6 -232,40.9 56.3,153.1 127,291.5 163.8,464 -238.3,37.5 -252.8,-265.2 -341.1,-423 -85.4,19.2 -171.7,37.5 -245.7,68.2 39.7,119.5 89.7,228.7 122.9,354.8 -191.7,89 -286.4,-148.5 -327.6,-300.2 -162.6,6.1 -170.3,196.8 -286.5,218.3 -68.3,12.7 -103.2,-51.6 -163.8,-81.9 -76.2,-38 -146,-46.5 -191,-81.8 -50.5,-39.7 -72.4,-97.2 -122.8,-150.1 -199,-209.1 -472.3,-437.1 -655,-559.5 -27.6,144.5 -141.7,427.5 -286.6,245.6 20,-139.4 96.9,-294.2 109.2,-395.7 -117.1,-55.9 -166,375.1 -382.1,163.7 45.8,-122.5 112.1,-224.5 163.8,-341.1 -65.3,-30.2 -112.1,-79 -177.4,-109.2 -113.7,43.9 -110,217.5 -245.6,204.7 -188.9,-17.8 -18.1,-247.7 40.9,-354.8 -84.6,-60.9 -169.8,-121.2 -259.2,-177.4 -51,117.5 -54.4,282.3 -136.5,368.4 -81.1,8.4 -101,-44.5 -136.5,-81.8 -6.6,-170.4 37.1,-290.4 54.6,-436.7 -63.9,-27.1 -104.9,-77 -177.4,-95.5 -55.2,89.2 -30.6,248.6 -136.4,259.3 -150.3,15.1 -131.3,-239.1 -54.6,-341.2 -36.4,-40.9 -102.4,-52.3 -163.8,-68.2 -10.2,126.2 -45.3,227.6 -109.1,300.2 -191.9,-15.3 -67.4,-259.2 -68.3,-395.7 -94.9,-27.9 -176.8,-68.8 -286.5,-81.9 -11.9,115.6 -16.4,238.3 -81.9,300.2 -96,14.1 -127.6,-36.1 -163.8,-81.9 -28.6,-108.5 59.7,-221.5 0,-272.9 -112.8,5.4 -16.3,220.2 -109.2,245.7 -134.5,7.1 -106.4,-148.3 -122.8,-259.3 -174.5,-49.1 -1598.5,-173.2 -2019.5,122.8 33.6,166.6 168.6,231.7 232,368.4 -0.9,40 -31.2,50.7 -54.6,68.2 -188.3,-57.3 -285.3,-205.9 -368.4,-368.4 -65.7,7.1 -114.5,31.1 -163.8,54.6 79.7,125.6 194,287.2 204.7,436.7 -216.5,43.7 -248.6,-215.3 -327.5,-354.9 -57.2,-16.4 -97.4,90.5 -177.4,95.6 54.4,132.9 204.5,240.2 191.1,395.7 -176.4,-32.8 -199.9,-218.6 -341.2,-286.5 15.9,90.3 154.4,171.9 191,286.5 -136,122.3 -277.4,-67.4 -327.5,-163.7 -27.1,18.3 -64.9,26 -95.5,40.9 17.5,109.9 127.5,127.3 136.5,245.6 -105.9,77.6 -242.8,-35.2 -259.3,-136.4 -309.1,68.8 84,288 95.5,463.9 -158.7,104 -282.4,-156.5 -354.7,-272.9 -139.8,169.6 -328.9,289.7 -505,423 7.8,56.5 53.4,130.7 13.7,191.1 -141,83.4 -286.1,-45.1 -368.4,-109.2 -67.2,-293.6 -315,-488.6 -545.9,-668.6 -68.6,-53.5 -124.2,-126.2 -191,-177.4 -325.3,-249.7 -732.72,-415.4 -1269.03,-395.7 8.6,148.7 71.12,364.9 -27.32,463.9 -289.89,39.7 -168.46,-331.8 -245.58,-504.9 h -177.4 c 2.61,124.8 85.16,169.6 81.84,300.2 4.22,31.5 -39.43,15.2 -40.92,40.9 -167.97,-18.5 -179.02,-193.9 -245.64,-313.8 -62.91,0.7 -133.38,-6 -177.35,13.7 2.06,117.9 111.32,195.5 95.5,286.5 -143.36,77.4 -216.72,-133.1 -259.29,-245.6 -72.85,9 -132.48,31.2 -191.01,54.6 18.65,176.4 199.66,322.3 150.09,477.6 -200.07,-45.6 -230.59,-260.7 -327.49,-409.4 -97.33,20.9 -165.29,71.2 -231.98,122.8 14.1,114.8 117.82,207.5 95.5,313.9 -135.26,77.7 -242.58,-88.7 -272.91,-204.7 -103.38,60.3 -186.44,141 -259.23,232 60.24,148.9 178.9,239.4 218.31,409.3 -176.24,11.5 -235.47,-209.6 -341.13,-313.8 -54.97,13.2 -76.85,59.6 -109.16,95.5 48.81,163.8 215.09,271.4 204.66,450.3 -220.04,-2.9 -213.16,-232.6 -354.8,-313.9 -98,87 27.6,196.2 81.9,286.6 62.46,104 119.71,208.1 150.09,313.8 -4.84,18 -24.01,21.5 -27.26,41 -224.16,-48.8 -229.65,-316.3 -395.73,-423 -50.98,152.9 -238.6,253.9 -245.64,409.3 -6.83,151.4 160.8,240.8 177.4,409.4 -108.66,98.1 -257.52,-65.2 -300.23,-163.7 -92.28,193.6 -202.65,394.3 -218.32,641.3 -7.21,113.9 106.89,304 -40.91,341.1 -152.48,38.4 -358.81,-87.5 -518.55,-150.1 -251.85,-98.6 -440.08,-114.4 -723.25,-150 85.6,141.8 194.94,259.9 245.64,436.6 -287.07,36.4 -325.6,-292.6 -491.23,-423 -18.72,147.3 234.76,295.5 259.24,491.3 -318.59,89.1 -396.05,-293.9 -532.14,-477.7 -76.23,5.7 -127.7,36.1 -191.05,54.6 23.36,123.3 220.31,188.3 245.63,354.8 -245.75,107.3 -338.03,-170 -477.62,-259.3 -73.8,58.1 -173.24,90.6 -259.25,136.5 105.44,112.9 243.6,193.1 354.74,300.2 -91.83,78.6 -218.81,2 -313.82,-54.6 -96.38,-57.3 -181.18,-204.1 -259.29,-95.5 72.57,132.1 260.36,149 327.54,286.5 -175.13,116.2 -351.59,-96.7 -463.96,-177.4 -79.84,34 -115.51,112 -191.06,150.2 86.83,63.2 176.4,123.8 218.32,232 -105.1,72.5 -230.04,-57.3 -286.5,-122.9 -335.55,342.3 -592.23,763.3 -655.03,1378.3 127.32,45.5 281.35,64.3 341.15,177.4 -102.11,69.2 -271.13,-3.7 -354.8,-41 -31.54,45.8 -4.78,149.9 -13.6,218.4 207.93,33 440.3,41.7 518.47,204.6 -142.97,101.5 -337.42,-49.6 -518.47,-40.9 -10.12,114.7 34.25,174.9 54.57,259.3 202.61,2 422.09,-12.8 573.08,40.9 -48.49,165.3 -334.37,93.2 -532.16,109.1 6.06,116.8 68.41,177.3 109.17,259.3 168.23,-48.3 414.04,-165.4 600.37,-68.2 -65.67,157.1 -313.82,131.9 -463.9,204.7 48.25,80.6 86.39,110.4 136.42,163.8 13.23,14 91.73,146.5 136.49,150 34.03,2.7 110.71,-97.5 150.07,-122.8 94.62,-60.7 342.09,-152.5 341.15,27.3 -0.67,118.5 -223.65,163.4 -286.56,259.3 559.34,395.9 1152.57,757.8 2115.08,750.5 47.58,-11.6 33.54,-84.7 81.85,-95.5 436.08,-39.9 347.47,389.4 395.72,682.3 68.8,417.1 159.84,766.1 382.12,1091.6 202.28,296.3 377.45,606.2 654.96,846.1 244.65,211.4 534.98,427.2 887,586.7 145.25,-96.2 245.6,-423.6 477.56,-300.2 -33.47,180.3 -140.64,286.9 -231.96,409.4 64.07,4.2 95.21,41.3 163.73,40.9 85.16,-149.2 189.56,-500.1 409.38,-341.1 -38.49,157.2 -145.59,318.3 -204.67,409.3 59.47,17.9 113.44,41.3 191.06,41 -0.05,-200.2 144.14,-256.1 204.67,-395.7 68.74,-9.7 93.77,24.5 136.47,40.9 1,182.9 -73.51,290.4 -163.79,382.1 790.11,180.4 1713.25,-39 2292.45,-300.2 119.1,-53.8 238.8,-153.3 313.9,-163.8 243.1,-34 309.8,261.1 395.7,395.7 100.8,-34.6 228.3,-33.9 272.9,54.6 -14.3,85.8 -89.1,111 -163.7,136.5 7.4,56.2 47.5,79.8 68.2,122.8 74.1,-53.9 216.3,-104.7 272.9,0 -9.9,99.3 -115.6,102.7 -136.4,191 40.3,18.9 55.2,63 95.5,81.9 77.4,-60.8 240.1,-195.1 341.1,-68.2 -24.7,116.3 -106.1,175.8 -191,231.9 81,146.4 244.3,210.6 368.4,313.9 95.7,-109 180.8,-228.6 382.1,-232 95.6,194.1 -120.1,280.7 -204.7,382.1 58.6,36.9 80.8,110.2 163.7,122.8 89.2,-107.3 138.7,-313.3 273,-341.1 364,-75.6 69.5,445.1 -54.6,477.6 597.6,303.6 1290.7,567.7 2196.9,491.2 763.2,-64.4 1364.2,-394.4 1951.4,-695.9 452.9,-232.5 819.9,-532.8 1050.7,-927.9 -70,-84.7 -225,-84.3 -259.3,-204.7 101,-99.8 267.7,24.8 341.2,81.9 123.3,-99.6 198.3,-247.5 300.2,-368.5 -122.4,-64 -275.2,-97.8 -327.5,-232 141.4,-82.9 255.2,87.7 395.7,95.6 95.7,-72.6 132.6,-204 191,-313.9 -135.7,-37.1 -256.6,-89 -313.8,-204.6 108.5,-106.5 259.4,56.7 368.4,81.8 62.4,-132.1 149.1,-327 81.9,-504.9 132.8,-137.3 297.8,1.1 436.7,54.6 374.5,144.5 871.6,329.7 1446.4,259.3 120.4,-14.8 375.4,-19.8 518.6,-54.6 458.1,-111.4 790.3,-295.4 1009.7,-614.1 175,-254.2 358.5,-537.7 491.3,-859.7 -15.8,-66.1 -104.9,-58.8 -122.9,-122.7 27.3,-79.3 130,-19.9 191.1,-13.7 7.3,-51.8 20.5,-97.8 40.9,-136.5 -51.1,-17.9 -210.8,29.8 -232,-54.6 48.4,-88 176.1,-96.7 286.6,-122.8 22.9,-81.7 55.8,-153.4 68.2,-245.6 -135.8,2.9 -331.1,86.3 -409.3,-13.6 56.1,-134.9 315.8,-66.3 436.7,-136.5 -18.9,-41.3 6.5,-48.7 0,-109.2 -141.1,-13.2 -281.1,69 -354.9,-27.2 19.4,-149 212.4,-124.2 354.9,-150.1 10.4,-110.6 -69.7,-130.5 -81.9,-218.4 287.3,-251.3 716,-362.7 982.5,-668.6 26.6,-30.6 41.4,-74.6 68.2,-109.2 94.6,-121.9 203.2,-190.8 272.9,-354.8 56.4,-132.8 133.5,-335.7 150.1,-463.9 45,-348.4 -34.2,-733.8 -40.9,-1105.3 z m 436.6,1241.8 c -18.6,131.2 -102.6,338.3 -163.7,477.5 -89.7,204.6 -211.2,316.5 -341.2,477.7 -81.7,101.2 -194.1,191.6 -300.2,245.6 -167.4,196.5 -475,252.8 -668.6,423 106.8,637.2 -120.8,1165.2 -368.4,1651.1 -64.2,125.9 -150.7,292.6 -245.7,423 -97.9,134.4 -196.2,296.6 -286.5,382.1 -208.2,197.1 -737.1,425.5 -1091.7,464 -726.5,78.8 -1516.2,-3.5 -2087.8,-245.7 -95.8,515.6 -391.6,960.7 -723.2,1337.3 -170.6,193.8 -287.6,406.2 -450.3,586.8 -158.4,175.9 -358.8,319.6 -586.8,450.3 -770.1,441.3 -1720.6,922.6 -2961.1,805.1 -578.8,-54.9 -1103.7,-239.5 -1555.6,-436.7 -226.3,-98.7 -442.4,-215.6 -627.7,-368.4 -276.1,-227.7 -559.9,-411.8 -777.8,-668.7 -210.7,-248.4 -425.3,-479.7 -559.5,-791.4 -1411.24,764.1 -3364.21,389.9 -4393.84,-382.1 -345.04,-258.7 -710.49,-595.9 -941.58,-941.6 -56.92,-85.1 -92.27,-199.1 -150.09,-286.5 -64.07,-96.9 -146.92,-171.7 -191.05,-259.3 -172.41,-341.9 -185.56,-822 -286.56,-1214.4 -805.5,55.4 -1342.25,-253.2 -1937.69,-545.8 -231.37,-113.8 -460.02,-294 -641.3,-464 -176.29,-165.3 -412.22,-400.4 -532.2,-586.8 -371.52,-576.9 -201.4,-1643.7 109.16,-2183.3 408.37,-709.5 1142.8,-1320.3 2156.01,-1419.1 421.8,-41.2 847.61,74.3 1282.66,218.3 -6.84,-285.5 80.39,-550.9 191.06,-777.8 228.26,-467.9 453.91,-797.9 805.11,-1132.6 496.38,-473 1087.27,-866.3 1992.26,-859.7 420.43,3.1 862.34,22.9 1241.73,122.8 705.52,186 1189.52,716.7 1610.22,1119 319.4,-397.9 742.6,-691.9 1139.6,-1012.1 199.1,-130.7 521.7,-262.9 638,-289.4 263,-60 529.8,-103.4 798.6,-127.9 279.1,-25.3 559.2,-30.7 839.3,-27.2 138.2,1.7 276.4,8.2 414.6,9.5 810.3,7.2 1210,234.6 1559.9,396.4 318.5,147.2 597,362.2 859.7,545.8 561.3,392.4 1104.4,787.6 1542,1255.4 85.3,-90.9 156.7,-118 245.6,-150.1 775.1,-280 1724.9,-385.9 2510.8,-245.6 350.8,62.5 777.8,222.3 1064.4,382.1 532.2,296.6 926.9,631.8 1241.7,1105.2 122.2,183.8 282.3,359.3 368.5,545.9 56.3,121.9 85.4,290.2 122.8,464 86.3,401.8 211.5,1001.3 136.4,1528.3" style="fill:#231f20;fill-opacity:1;fill-rule:evenodd;stroke:none" id="path16" />
      <path d="m 17289,15137.4 -4151.7,66.3 c 0,0 -2560.6,-33.1 -2610.3,-66.3 -49.8,-33.1 -107.8,-107.7 -116.1,-281.7 -8.2,-174.1 41.5,-1475.1 41.5,-1475.1 0,0 116,-49.7 182.3,-74.6 66.3,-24.8 1102.1,-24.8 1102.1,-24.8 l 4193.2,16.6 1193.3,8.2 c 0,0 149.1,-49.7 198.8,-41.4 49.8,8.3 107.8,99.4 107.8,99.4 l 33.1,1367.4 c 0,0 -74.6,439.2 -174,406" style="fill:#6f7287;fill-opacity:1;fill-rule:evenodd;stroke:none" id="path18" />
      <path d="m 12764.4,12866.8 c 0,0 -696.1,24.9 -754.1,24.9 -58,0 -754.1,-24.9 -754.1,-24.9 0,0 -530.4,-33.1 -629.8,-49.7 -99.4,-16.6 -149.2,8.3 -165.7,-82.8 -16.6,-91.2 -16.6,-1375.7 -16.6,-1375.7 0,0 8.3,-256.9 82.9,-298.3 74.5,-41.4 339.7,-82.9 414.3,-74.6 74.6,8.3 629.8,0 629.8,0 l 2179.4,33.2 1823.1,-16.6 1533.1,-16.6 281.7,16.6 c 0,0 58,563.5 41.5,779 -16.6,215.4 41.4,903.2 -16.6,986.1 -58,82.9 -124.3,107.7 -124.3,107.7 l -1872.8,33.2 c 0,0 -1284.5,-33.2 -1325.9,-24.9 -41.5,8.3 -1325.9,-16.6 -1325.9,-16.6" style="fill:#6f7287;fill-opacity:1;fill-rule:evenodd;stroke:none" id="path20" />
      <path d="m 10825.3,10571.4 c -23.6,-7.9 -256.9,-41.4 -298.3,-74.6 -41.5,-33.1 -74.6,-298.3 -74.6,-298.3 l 24.8,-1301 c 0,0 33.2,-149.2 82.9,-165.8 49.7,-16.6 2461.2,-49.7 2461.2,-49.7 h 3836.8 c 0,0 488.9,0 522,49.7 33.2,49.7 66.3,198.9 66.3,198.9 0,0 8.3,986.1 -8.3,1193.3 -16.5,207.2 -16.5,422.6 -58,447.5 -41.4,24.9 -132.5,24.9 -132.5,24.9 l -1889.4,41.4 -1284.5,-24.9 c 0,0 -1566.2,-16.5 -1707.1,-8.3 -140.8,8.3 -1516.5,-24.8 -1541.3,-33.1" style="fill:#6f7287;fill-opacity:1;fill-rule:evenodd;stroke:none" id="path22" />
      <path d="m 11289.3,14607.1 c -25.9,-10 -248.6,41.4 -319,20.7 -70.4,-20.7 -169.9,-132.6 -169.9,-132.6 0,0 -74.6,-198.9 -16.6,-352.2 58.1,-153.3 24.9,-215.4 207.2,-240.3 182.3,-24.9 352.2,41.4 352.2,41.4 l 116,153.3 45.6,203 c 0,0 -161.6,327.4 -215.5,306.7" style="fill:#74cea5;fill-opacity:1;fill-rule:evenodd;stroke:none" id="path24" />
      <path d="m 14659.3,14596 c -20.3,-14 -110.5,-160.2 -110.5,-160.2 0,0 -33.1,-243.1 16.6,-342.5 49.7,-99.5 105,-160.2 248.6,-176.8 143.6,-16.6 320.4,66.3 320.4,66.3 l 88.4,143.6 11.1,204.4 -38.7,138.1 -55.3,88.4 -116,71.9 c 0,0 -204.4,77.3 -364.6,-33.2" style="fill:#6ccfea;fill-opacity:1;fill-rule:evenodd;stroke:none" id="path26" />
      <path d="m 11376.4,12274.3 c 0,0 -136.8,95.3 -207.2,95.3 -70.5,0 -165.8,12.5 -223.8,-20.7 -58,-33.1 -91.1,-62.1 -91.1,-62.1 l -66.3,-78.8 -29,-140.8 29,-190.6 99.4,-174.1 c 0,0 103.6,-124.3 261.1,-103.5 157.4,20.7 277.6,149.1 277.6,149.1 l 58,186.5 -20.7,211.3 -87,128.4" style="fill:#6ccfea;fill-opacity:1;fill-rule:evenodd;stroke:none" id="path28" />
      <path d="m 14885.8,12427.6 c -17.6,-5.8 -203,-20.7 -203,-20.7 l -161.6,-120.1 -37.3,-116 -12.4,-178.2 78.7,-182.3 161.6,-103.6 136.7,-24.9 223.8,45.6 95.3,87 53.8,99.5 20.7,149.1 -29,140.9 -62.1,132.6 c 0,0 -203,111.9 -265.2,91.1" style="fill:#74cea5;fill-opacity:1;fill-rule:evenodd;stroke:none" id="path30" />
      <path d="m 11289.3,10054.8 c -27.6,16.6 -149.1,55.3 -220.9,33.2 -71.9,-22.1 -210,-66.3 -210,-66.3 l -104.9,-99.4 v -88.4 l 22.1,-138.1 44.2,-160.3 138.1,-143.6 c 0,0 209.9,-49.7 259.6,-38.7 49.7,11.1 232.1,116 232.1,116 l 49.7,160.3 5.5,143.6 -88.4,232 -127.1,49.7" style="fill:#74cea5;fill-opacity:1;fill-rule:evenodd;stroke:none" id="path32" />
      <path d="m 14681.4,10088 c -33.6,-33.6 -121.5,-121.5 -121.5,-121.5 l -44.2,-237.6 60.7,-165.7 243.1,-171.3 292.8,77.3 121.6,94 38.6,171.2 -11,171.3 -121.6,171.2 -127,94 c 0,0 -259.7,-11.1 -331.5,-82.9" style="fill:#6ccfea;fill-opacity:1;fill-rule:evenodd;stroke:none" id="path34" />
      <path d="m 16896.7,13303.3 c -22.1,5.5 -220.9,-5.5 -220.9,-5.5 0,0 -779,-27.7 -834.2,-16.6 -55.3,11 -790,-33.2 -889.5,-22.1 -99.4,11 -961.3,0 -1016.5,22.1 -55.3,22.1 -900.5,16.6 -900.5,16.6 0,0 -1016.5,-16.6 -1049.7,-11.1 -33.1,5.5 -906,-11 -939.1,-27.6 -33.2,-16.6 -82.9,-198.9 -82.9,-198.9 l 27.6,-193.4 193.4,-22.1 1093.8,55.3 486.2,-33.2 723.7,27.7 917.1,-11.1 c 0,0 618.7,27.6 635.3,27.6 16.6,0 1419.8,-16.5 1419.8,-16.5 l 491.7,-27.7 -55.3,436.5" style="fill:#474a5c;fill-opacity:1;fill-rule:evenodd;stroke:none" id="path36" />
      <path d="m 16902.3,10966.4 c 0,-22.1 0,-348 0,-348 l -1320.4,16.5 -1325.9,-27.6 -1370.1,-5.5 -1922.5,-27.6 27.6,392.2 635.3,22.1 972.4,11 1657.3,5.6 2143.5,-27.7 502.8,-11" style="fill:#474a5c;fill-opacity:1;fill-rule:evenodd;stroke:none" id="path38" />
      <path d="m 10551.8,13397.2 c 0,0 22.1,1411.5 179.6,1552.4 157.4,140.9 6425,88.4 6474.7,105 49.7,16.5 256.9,-116.1 256.9,-116.1 l -124.3,190.6 -969.5,33.2 c 0,0 -5759.4,58 -5842.2,-24.9 -82.9,-82.8 -82.9,-118.8 -82.9,-176.8 0,-58 -58,-1430.8 -24.9,-1488.8 33.2,-58 132.6,-74.6 132.6,-74.6" style="fill:#8f90a8;fill-opacity:1;fill-rule:evenodd;stroke:none" id="path40" />
      <path d="m 17410.5,12739.8 c 0,0 -2220.8,38.6 -2679.4,27.6 -458.5,-11 -1121.5,-33.1 -1331.4,-33.1 -209.9,0 -2651.8,16.5 -2723.6,-38.7 -71.8,-55.3 -154.7,-1513.7 -160.2,-1563.5 -5.5,-49.7 -55.2,-77.3 -71.8,71.9 -16.6,149.1 33.1,1563.4 55.2,1580 22.1,16.5 298.4,55.2 298.4,55.2 0,0 552.4,27.6 580,22.1 27.7,-5.5 635.4,38.7 657.5,33.2 22.1,-5.6 1452.9,0 1452.9,0 l 834.2,-5.6 718.2,22.1 1298.3,5.6 977.8,-44.2 c 0,0 82.9,5.5 93.9,-132.6" style="fill:#8f90a8;fill-opacity:1;fill-rule:evenodd;stroke:none" id="path42" />
      <path d="m 17371.9,10455.4 c 0,0 -6521.8,8.3 -6654.3,-74.6 -132.6,-82.9 -157.5,-1657.4 -198.9,-1591.1 -41.5,66.3 -41.5,1682.3 -41.5,1682.3 l 215.5,91.1 c 0,0 1201.6,33.2 1226.4,24.9 24.9,-8.3 2983.3,58 3049.6,49.7 66.3,-8.3 2237.4,-49.7 2312,-58 74.6,-8.3 99.4,-66.3 91.2,-124.3" style="fill:#8f90a8;fill-opacity:1;fill-rule:evenodd;stroke:none" id="path44" />
      <path d="m 14628.6,14153.4 c 20.1,-18.6 62.5,10.8 112.2,0 -5.2,-44.6 -72.4,-27.3 -74.8,-74.8 -10.3,-35.2 17.6,-32.3 12.5,-62.3 45.4,-11.4 77.7,54.1 112.2,12.4 -4,-29.3 -38.6,-27.9 -49.9,-49.9 313.2,-156.8 548.3,272 361.7,511.4 -35.2,-1.3 -52.9,-47 -87.3,-12.5 7.8,33.8 52.1,31.1 49.9,74.9 -50,57.2 -74.3,16.5 -137.2,0 0,20.7 0,41.5 0,62.3 -249.5,45 -370.9,-220.1 -299.3,-461.5 z m 99.8,536.4 c 367.3,73.3 646.6,-122.1 611.1,-461.5 -39.2,-375.1 -573.2,-462 -798.2,-237 -211.5,211.5 -110.3,652.5 187.1,698.5" style="fill:#231f20;fill-opacity:1;fill-rule:evenodd;stroke:none" id="path46" />
      <path d="m 15875.8,14677.3 c -13.6,-176.8 91.8,-1010.8 -224.5,-848.2 -44.3,246.5 -35.2,637.4 37.4,848.2 31.7,40.5 153.2,31.6 187.1,0" style="fill:#231f20;fill-opacity:1;fill-rule:evenodd;stroke:none" id="path48" />
      <path d="m 16561.8,13741.9 c -35.3,-15.4 -77,-15.4 -112.3,0 -53,103.1 -24.9,293.2 -24.9,461.4 0,172.7 -16.1,349.5 24.9,474 96.8,79.2 149.9,-38.4 162.2,-149.7 23.5,-214.8 4.5,-689 -49.9,-785.7" style="fill:#231f20;fill-opacity:1;fill-rule:evenodd;stroke:none" id="path50" />
      <path d="m 16249.9,14677.3 c 59.9,-54.9 31.3,-197.7 25,-336.8 -10.3,-226.3 66.6,-561.9 -124.7,-536.3 -189.2,25.4 -81.5,712.8 -25,873.1 49.9,12.3 74.9,12.3 124.7,0" style="fill:#231f20;fill-opacity:1;fill-rule:evenodd;stroke:none" id="path52" />
      <path d="m 11311,14365.5 c -18,6.6 -30.4,-48.7 -37.4,-12.5 -34.7,53.6 46.3,82.1 49.9,137.2 -206.4,269.1 -603.8,-25.2 -461.5,-361.7 38,-4.9 63.5,32.8 74.8,-12.5 -23.6,-27 -63.3,-29.1 -37.4,-74.8 40.3,4.5 74.4,56.5 112.3,24.9 -12.5,-41.6 -64.9,-43.1 -74.9,-87.3 231.7,-172.5 521.5,76.4 461.5,349.3 -55.4,5.4 -30.9,-69 -99.8,-49.9 5.3,77 106.9,181.9 12.5,87.3 z m -349.2,299.3 c 367.3,73.3 646.6,-122.1 611.1,-461.5 -39.2,-375 -573.2,-462 -798.2,-236.9 -211.5,211.4 -110.3,652.4 187.1,698.4" style="fill:#231f20;fill-opacity:1;fill-rule:evenodd;stroke:none" id="path54" />
      <path d="m 12109.2,14652.3 c -13.6,-176.7 91.9,-1010.7 -224.5,-848.1 -44.3,246.4 -35.2,637.3 37.4,848.1 31.7,40.5 153.3,31.7 187.1,0" style="fill:#231f20;fill-opacity:1;fill-rule:evenodd;stroke:none" id="path56" />
      <path d="m 12533.3,14652.3 c -13.7,-176.7 91.8,-1010.7 -224.5,-848.1 -44.3,246.4 -35.2,637.3 37.4,848.1 31.7,40.5 153.2,31.7 187.1,0" style="fill:#231f20;fill-opacity:1;fill-rule:evenodd;stroke:none" id="path58" />
      <path d="m 12982.3,14652.3 c -13.7,-176.7 91.8,-1010.7 -224.5,-848.1 -44.3,246.4 -35.2,637.3 37.4,848.1 31.7,40.5 153.2,31.7 187.1,0" style="fill:#231f20;fill-opacity:1;fill-rule:evenodd;stroke:none" id="path60" />
      <path d="m 13443.7,14652.3 c -13.6,-176.7 91.9,-1010.7 -224.5,-848.1 -44.3,246.4 -35.2,637.3 37.4,848.1 31.7,40.5 153.3,31.7 187.1,0" style="fill:#231f20;fill-opacity:1;fill-rule:evenodd;stroke:none" id="path62" />
      <path d="m 13955.1,14652.3 c -13.7,-176.7 91.8,-1010.7 -224.5,-848.1 -44.3,246.4 -35.2,637.3 37.4,848.1 31.7,40.5 153.2,31.7 187.1,0" style="fill:#231f20;fill-opacity:1;fill-rule:evenodd;stroke:none" id="path64" />
      <path d="m 16985.8,14664.8 c 28.7,-247.4 67.3,-702.7 -24.9,-910.5 -41.6,0 -83.2,0 -124.7,0 -96.7,216 -52.3,670.3 0,898 19.8,39.6 111.7,26.4 149.6,12.5" style="fill:#231f20;fill-opacity:1;fill-rule:evenodd;stroke:none" id="path66" />
      <path d="m 13817.9,13243 c -7.3,-117.6 -130.4,-227.1 -237,-286.9 62.8,111.8 152.7,196.5 237,286.9" style="fill:#231f20;fill-opacity:1;fill-rule:evenodd;stroke:none" id="path68" />
      <path d="m 15040.2,12345 c -281.1,205.3 -587.8,-242.6 -349.3,-498.9 -39.1,-8.6 -16.2,-33.3 -12.4,-62.4 68.2,-47.4 91.1,91.1 162.1,37.4 7,-58.4 -99.5,-50.4 -62.4,-99.7 53.5,-7.7 50.9,40.6 99.8,37.4 34.8,-18.5 -26.3,-55.7 25,-49.9 285.6,43.7 354.8,477.1 137.2,636.1 z m -311.8,112.2 c 367.3,73.4 646.6,-122 611.1,-461.4 -39.2,-375.1 -573.2,-462 -798.2,-237 -211.5,211.5 -110.3,652.4 187.1,698.4" style="fill:#231f20;fill-opacity:1;fill-rule:evenodd;stroke:none" id="path70" />
      <path d="m 15875.8,12444.8 c -13.6,-176.8 91.8,-1010.8 -224.5,-848.2 -44.3,246.4 -35.2,637.4 37.4,848.2 31.7,40.5 153.2,31.6 187.1,0" style="fill:#231f20;fill-opacity:1;fill-rule:evenodd;stroke:none" id="path72" />
      <path d="m 16561.8,11509.3 c -35.3,-15.3 -77,-15.3 -112.3,0 -53,103.2 -24.9,293.3 -24.9,461.5 0,172.6 -16.1,349.5 24.9,474 96.8,79.2 149.9,-38.4 162.2,-149.7 23.5,-214.8 4.5,-689 -49.9,-785.8" style="fill:#231f20;fill-opacity:1;fill-rule:evenodd;stroke:none" id="path74" />
      <path d="m 16249.9,12444.8 c 59.9,-54.9 31.3,-197.8 25,-336.8 -10.3,-226.3 66.6,-562 -124.7,-536.3 -189.2,25.4 -81.5,712.8 -25,873.1 49.9,12.2 74.9,12.2 124.7,0" style="fill:#231f20;fill-opacity:1;fill-rule:evenodd;stroke:none" id="path76" />
      <path d="m 16985.8,12432.3 c 28.7,-247.5 67.3,-702.7 -24.9,-910.5 -41.6,0 -83.2,0 -124.7,0 -96.7,215.9 -52.3,670.2 0,898 19.8,39.6 111.7,26.4 149.6,12.5" style="fill:#231f20;fill-opacity:1;fill-rule:evenodd;stroke:none" id="path78" />
      <path d="m 10849.5,11896 c 23.4,2.7 82.7,32.1 99.8,0 -10.7,-39.2 -72.1,-27.8 -74.8,-74.9 31,-40.7 78,46.7 112.2,0 2.4,-60.5 -77.2,-39.2 -74.8,-99.7 385.6,-313.3 702.4,431.8 299.3,573.7 -29.6,-20.2 -19.8,-80 -87.3,-62.4 -23.8,52.8 88.7,74.5 24.9,87.3 -44,-18.3 -40.4,-84.3 -112.2,-74.8 -17.9,37.2 43.8,76 -12.5,74.8 -130.6,-72.3 -213.7,-218.5 -174.6,-424 z m 112.3,498.9 c 367.3,73.3 646.6,-122.1 611.1,-461.5 -39.2,-375.1 -573.2,-462 -798.2,-237 -211.5,211.5 -110.3,652.5 187.1,698.5" style="fill:#231f20;fill-opacity:1;fill-rule:evenodd;stroke:none" id="path80" />
      <path d="m 12109.2,12382.4 c -13.6,-176.8 91.9,-1010.7 -224.5,-848.1 -44.3,246.4 -35.2,637.3 37.4,848.1 31.7,40.5 153.3,31.7 187.1,0" style="fill:#231f20;fill-opacity:1;fill-rule:evenodd;stroke:none" id="path82" />
      <path d="m 12533.3,12382.4 c -13.7,-176.8 91.8,-1010.7 -224.5,-848.1 -44.3,246.4 -35.2,637.3 37.4,848.1 31.7,40.5 153.2,31.7 187.1,0" style="fill:#231f20;fill-opacity:1;fill-rule:evenodd;stroke:none" id="path84" />
      <path d="m 12982.3,12382.4 c -13.7,-176.8 91.8,-1010.7 -224.5,-848.1 -44.3,246.4 -35.2,637.3 37.4,848.1 31.7,40.5 153.2,31.7 187.1,0" style="fill:#231f20;fill-opacity:1;fill-rule:evenodd;stroke:none" id="path86" />
      <path d="m 13443.7,12382.4 c -13.6,-176.8 91.9,-1010.7 -224.5,-848.1 -44.3,246.4 -35.2,637.3 37.4,848.1 31.7,40.5 153.3,31.7 187.1,0" style="fill:#231f20;fill-opacity:1;fill-rule:evenodd;stroke:none" id="path88" />
      <path d="m 13955.1,12382.4 c -13.7,-176.8 91.8,-1010.7 -224.5,-848.1 -44.3,246.4 -35.2,637.3 37.4,848.1 31.7,40.5 153.2,31.7 187.1,0" style="fill:#231f20;fill-opacity:1;fill-rule:evenodd;stroke:none" id="path90" />
      <path d="m 16636.6,11135.2 c -45,-50.7 -92.7,-98.6 -187.1,-99.8 36.7,59 88.6,102.6 187.1,99.8" style="fill:#231f20;fill-opacity:1;fill-rule:evenodd;stroke:none" id="path92" />
      <path d="m 16836.2,11122.7 c -30.3,-40.4 -52.7,-88.7 -124.8,-87.3 -20.8,40.8 74.2,117.9 124.8,87.3" style="fill:#231f20;fill-opacity:1;fill-rule:evenodd;stroke:none" id="path94" />
      <path d="m 17210.3,11122.7 c -19.2,-55.6 -57.1,-92.6 -137.2,-87.3 15.6,59.2 54.9,94.7 137.2,87.3" style="fill:#231f20;fill-opacity:1;fill-rule:evenodd;stroke:none" id="path96" />
      <path d="m 14828.1,9439 c 360.9,-21.5 444.6,466.2 212.1,636 -233,170.2 -528.1,-111.6 -411.6,-424 18.7,-24.2 52.5,21.8 62.3,-25 -2,-35.3 -22.8,-51.9 -24.9,-87.2 30,-30.2 33,30.2 87.3,12.4 3.2,-37 -49.3,-61.5 0,-74.8 30.7,41.8 55,-27.2 74.8,-37.4 z m -99.7,748.3 c 367.3,73.3 646.6,-122.1 611.1,-461.5 -39.2,-375 -573.2,-462 -798.2,-237 -211.5,211.5 -110.3,652.5 187.1,698.5" style="fill:#231f20;fill-opacity:1;fill-rule:evenodd;stroke:none" id="path98" />
      <path d="m 15875.8,10174.8 c -13.6,-176.7 91.8,-1010.7 -224.5,-848.1 -44.3,246.4 -35.2,637.3 37.4,848.1 31.7,40.5 153.2,31.7 187.1,0" style="fill:#231f20;fill-opacity:1;fill-rule:evenodd;stroke:none" id="path100" />
      <path d="m 16561.8,9239.4 c -35.3,-15.4 -77,-15.4 -112.3,0 -53,103.2 -24.9,293.3 -24.9,461.5 0,172.6 -16.1,349.4 24.9,473.9 96.8,79.3 149.9,-38.3 162.2,-149.6 23.5,-214.8 4.5,-689 -49.9,-785.8" style="fill:#231f20;fill-opacity:1;fill-rule:evenodd;stroke:none" id="path102" />
      <path d="m 16249.9,10174.8 c 59.9,-54.9 31.3,-197.7 25,-336.7 -10.3,-226.3 66.6,-562 -124.7,-536.3 -189.2,25.3 -81.5,712.8 -25,873 49.9,12.3 74.9,12.3 124.7,0" style="fill:#231f20;fill-opacity:1;fill-rule:evenodd;stroke:none" id="path104" />
      <path d="m 16985.8,10162.4 c 28.7,-247.5 67.3,-702.7 -24.9,-910.5 -41.6,0 -83.2,0 -124.7,0 -96.7,215.9 -52.3,670.2 0,898 19.8,39.5 111.7,26.4 149.6,12.5" style="fill:#231f20;fill-opacity:1;fill-rule:evenodd;stroke:none" id="path106" />
      <path d="m 10899.4,9576.2 c -3.9,-16.9 -17.7,-23.9 -12.5,-49.9 16.9,-24.8 87.1,3.9 87.3,-37.5 -16.5,-12.5 -46.4,-11.8 -49.8,-37.4 304,-264.9 650.4,259 386.6,498.9 6,-24.4 -57.2,-40.2 -62.4,-12.4 -7.3,43.7 59,41 25,74.8 -58.6,34.6 -73.4,-29.3 -149.7,-12.5 3.7,25.4 33.8,24.5 37.4,49.9 -251.2,66.6 -412.4,-291.7 -261.9,-473.9 z m 62.4,548.7 c 367.3,73.4 646.6,-122 611.1,-461.5 -21.5,-205.3 -240.1,-370 -436.5,-374.1 -490.9,-10.3 -662.2,695.5 -174.6,835.6" style="fill:#231f20;fill-opacity:1;fill-rule:evenodd;stroke:none" id="path108" />
      <path d="m 12109.2,10112.5 c -13.6,-176.8 91.9,-1010.7 -224.5,-848.2 -44.3,246.5 -35.2,637.4 37.4,848.2 31.7,40.5 153.3,31.6 187.1,0" style="fill:#231f20;fill-opacity:1;fill-rule:evenodd;stroke:none" id="path110" />
      <path d="m 12533.3,10112.5 c -13.7,-176.8 91.8,-1010.7 -224.5,-848.2 -44.3,246.5 -35.2,637.4 37.4,848.2 31.7,40.5 153.2,31.6 187.1,0" style="fill:#231f20;fill-opacity:1;fill-rule:evenodd;stroke:none" id="path112" />
      <path d="m 12982.3,10112.5 c -13.7,-176.8 91.8,-1010.7 -224.5,-848.2 -44.3,246.5 -35.2,637.4 37.4,848.2 31.7,40.5 153.2,31.6 187.1,0" style="fill:#231f20;fill-opacity:1;fill-rule:evenodd;stroke:none" id="path114" />
      <path d="m 13443.7,10112.5 c -13.6,-176.8 91.9,-1010.7 -224.5,-848.2 -44.3,246.5 -35.2,637.4 37.4,848.2 31.7,40.5 153.3,31.6 187.1,0" style="fill:#231f20;fill-opacity:1;fill-rule:evenodd;stroke:none" id="path116" />
      <path d="m 13955.1,10112.5 c -13.7,-176.8 91.8,-1010.7 -224.5,-848.2 -44.3,246.5 -35.2,637.4 37.4,848.2 31.7,40.5 153.2,31.6 187.1,0" style="fill:#231f20;fill-opacity:1;fill-rule:evenodd;stroke:none" id="path118" />
      <path d="m 16636.6,8865.2 c -45,-50.6 -92.7,-98.5 -187.1,-99.7 36.7,58.9 88.6,102.6 187.1,99.7" style="fill:#231f20;fill-opacity:1;fill-rule:evenodd;stroke:none" id="path120" />
      <path d="m 16836.2,8852.8 c -30.3,-40.4 -52.7,-88.7 -124.8,-87.3 -20.8,40.8 74.2,117.9 124.8,87.3" style="fill:#231f20;fill-opacity:1;fill-rule:evenodd;stroke:none" id="path122" />
      <path d="m 17210.3,8852.8 c -19.2,-55.6 -57.1,-92.6 -137.2,-87.3 15.6,59.2 54.9,94.7 137.2,87.3" style="fill:#231f20;fill-opacity:1;fill-rule:evenodd;stroke:none" id="path124" />
      <path d="m 17372.4,10174.8 c -38.8,8.8 -53.6,-69.7 -87.2,-24.9 -5.1,92.5 130.8,110 74.8,212 -29.9,-15.8 -36.8,-54.7 -87.3,-49.9 10.3,68.7 53.9,104.1 74.8,162.2 -14,31.7 -32.3,40.2 -51.6,66.7 -799.2,10.1 -1572,68.1 -2438.8,22 -286.5,-15.2 -663.4,-15.1 -984.4,0 -370,17.5 -732,10.9 -1124,-7.3 -366.2,-17 -721.5,7.3 -1035.7,-7.4 -192.2,-8.9 -437.9,-15.7 -506.9,-7.3 -218.5,26.5 -543.5,-40.3 -668.5,-88.2 -50.6,-495.9 -36.4,-1060.6 -12.4,-1562.5 50.3,-4 76.4,80.9 112.3,49.9 9.5,-76 -57.6,-75.5 -62.4,-137.2 72.1,7.1 122.3,101.9 199.6,62.3 -18.5,-43.9 -70.8,-53.9 -99.8,-87.3 97.7,-36.7 112.8,43.2 199.6,49.9 45.9,-25 -66.6,-57.9 0,-62.3 75.7,-0.6 136.4,79.4 199.5,49.9 -32.7,-13.1 -51.9,-39.6 -74.8,-62.4 192.4,-50 233.5,114.3 361.7,87.3 -14.4,-43.9 -70.7,-45.7 -87.3,-87.3 151,-38.6 179.8,111 299.3,62.4 -7.7,-38 -67.1,-24.4 -74.8,-62.4 121,3.8 155.7,160 286.8,112.2 -35.5,-47.6 -106.2,-60.1 -137.2,-112.2 137.8,-4.6 195,137.5 311.8,112.2 -20.3,-50.3 -85.2,-56 -112.2,-99.7 136.7,-20.4 160.6,72.2 274.4,74.8 5,-50.7 -53.1,-38.4 -62.4,-74.8 137.9,-32.3 179,93 274.4,62.3 -5.6,-36 -53.7,-29.4 -62.4,-62.3 130.6,-26.7 140.8,67.1 262,49.9 -3.8,-33.7 -52.5,-22.4 -62.4,-49.9 120.3,-16.4 133,74.8 249.4,62.3 -10.3,-31.3 -43.6,-39.4 -62.3,-62.3 170.8,-41.8 184.9,139.1 324.3,87.3 -17.9,-36.6 -115.6,-58.6 -99.8,-87.3 136.2,-7.3 183.1,140.9 311.8,99.7 -26,-40.5 -82,-51 -112.3,-87.3 134.8,-5.7 170.5,153.7 299.4,112.3 -31.6,-51.6 -102.3,-64 -137.2,-112.3 164.4,-31.2 184.3,148.2 324.2,99.8 -17.2,-45.1 -78.8,-45.9 -99.7,-87.3 125.5,-17.4 115.2,101 249.4,74.8 1.5,-33.6 -113.3,-59.6 -49.9,-74.8 84.6,11 94.5,96.8 212,74.8 -14.1,-48.1 -77.7,-46.9 -99.7,-87.3 139.2,-22.7 169.2,130 299.3,74.9 -37,-25.3 -86.1,-38.6 -112.2,-74.9 128.1,-32.3 152.3,105.2 261.9,49.9 -3.8,-33.7 -52.5,-22.3 -62.4,-49.9 92.3,-13.2 110.2,47.9 199.6,37.5 0.2,-18.3 -52.6,-39.6 0,-37.5 111.6,-11.6 145.6,120.2 249.4,74.9 -19.9,-46.7 -84.7,-48.4 -112.2,-87.3 140.5,-27.8 197.9,144.9 311.8,62.3 14.4,23.7 81.9,58.5 99.7,37.4 -9.1,-49 -68.2,-48.1 -87.3,-87.3 128.3,-28.3 153.9,112 262,62.4 -14.1,-31.7 -62.7,-28.8 -74.9,-62.4 113.9,-22.2 137.9,111.4 224.5,74.9 4,-49.7 -57.7,-33.8 -62.3,-74.9 70.5,-3.7 115.4,83.8 187,37.5 -1.3,-23.6 -41.2,-8.7 -37.4,-37.5 146.5,-32.6 184.1,104.9 311.8,49.9 2.2,-21.4 -70.7,-49 -12.4,-49.9 89.9,1.6 119.7,63.2 212,62.4 5.2,-42.7 -37.4,-37.5 -49.9,-62.4 130.2,-17.9 135.1,89.5 261.9,74.9 -13.6,-40.5 -61,-47.1 -87.3,-74.9 127.3,-31.5 163.6,94 261.9,49.9 -12.7,-33 -57.6,-33.8 -74.8,-62.3 141,-55.5 183.7,110.6 299.3,74.8 -18.5,-43.9 -70.8,-53.9 -99.7,-87.3 206.1,-7 374.4,2.5 598.6,0 -1.1,82.8 94.8,126 162.1,99.8 -25.3,-53.7 -100.6,-57.4 -124.7,-112.3 87,16.9 189.8,18.1 286.9,25 3,80.1 90,76.2 99.7,149.6 -27.1,39.6 -57.8,-64.1 -99.7,-12.4 19.8,84.1 113.2,94.6 99.7,212 -26.4,21.6 -54.5,-61.3 -112.2,-49.9 0.9,110 162.7,139.3 87.3,249.4 -15.5,-27.8 -92.7,-77.9 -112.2,-24.9 20.8,87.3 118.6,97.6 124.7,199.5 -9.7,32.8 -56.4,-66.3 -87.3,-12.4 -13.8,88.8 106.8,108.9 74.8,174.6 -14.5,-23.7 -77.4,-63 -87.3,-49.9 -16.3,70.2 37.5,156.2 112.2,174.6 -7.9,46.1 16.2,124.2 -12.4,149.7 -30.3,-44.6 -57.5,-92.1 -124.7,-99.8 13.5,111.2 110.4,138.9 137.1,237 -22.3,21.5 -54.5,-53 -99.7,-49.9 -4.8,59.2 48.9,122.1 99.7,162.1 z m -673.4,486.4 c 45.7,0 91.4,0 137.2,0 -13.1,45.2 28.3,144.7 -25,149.7 -26.8,-60.5 -87.3,-87.3 -112.2,-149.7 z m -199.6,0 c 169.5,21.8 193.4,189.1 299.3,274.4 -170.4,-20.7 -200,-182.4 -299.3,-274.4 z m -187.1,12.5 c 37.5,0 74.9,0 112.3,0 46.8,107 140.6,167 199.5,261.9 -188.7,-2.5 -184.7,-197.7 -311.8,-261.9 z m -149.6,0 c 181.4,5.6 192.8,181.3 299.3,261.9 -176.9,-10.1 -193.9,-180.3 -299.3,-261.9 z m -224.5,0 c 45.7,0 91.4,0 137.2,0 56.4,105.7 140.1,184.2 212,274.4 -239.1,31.2 -207.4,-208.3 -349.2,-274.4 z m -947.9,12.5 c 45.7,0 91.4,0 137.2,0 32.8,121 138,169.6 199.5,261.9 -241.7,42.2 -232.5,-166.6 -336.7,-261.9 z m -49.9,261.9 c -24.2,-47.5 -70.7,-98 -112.3,-149.7 -37.7,-46.9 -105.9,-108.2 -87.3,-137.2 45.6,8.5 90.7,17.4 149.7,12.5 57.8,96.1 131,176.7 187.1,274.4 -45.8,0 -91.5,0 -137.2,0 z m -449,-286.9 c 54,0 108.1,0 162.1,0 49.1,117.2 150.8,181.9 212.1,286.9 -221.1,0.7 -224.6,-216.1 -374.2,-286.9 z m 74.8,286.9 c -66.9,-120.2 -168.5,-205.7 -274.4,-286.9 45.8,0 91.5,0 137.2,0 65.8,108.9 180.2,169.1 237,286.9 -33.3,0 -66.5,0 -99.8,0 z m 1097.6,-261.9 c 84.9,5.9 151.9,-6.1 224.5,-12.5 34.4,119.4 124.6,183 174.6,286.9 -258.4,33.8 -259.3,-189.8 -399.1,-274.4 z m -224.5,0 c 54,0 108.1,0 162.1,0 50,112.2 143.9,180.4 212,274.4 -248.3,32.1 -246,-186.4 -374.1,-274.4 z m -261.9,0 c 62.3,0 124.7,0 187,0 39.8,118.2 142.5,173.5 199.6,274.4 -240.5,20.1 -244.8,-195.9 -386.6,-274.4 z m -1035.2,-25 c 37.4,0 74.8,0 112.2,0 46,128.7 168.4,180.9 224.5,299.4 -144.6,-67.5 -212.1,-212 -336.7,-299.4 z m -187.1,0 c 41.6,0 83.1,0 124.7,0 68.2,119 193.3,180.9 261.9,299.4 -248.8,20.1 -242.1,-215.2 -386.6,-299.4 z m -2706.5,-24.9 c 174.4,50.1 204.5,244.5 349.3,324.3 -49.9,0 -99.8,0 -149.7,0 -28.5,-147.7 -211.8,-244 -199.6,-324.3 z m 49.9,324.3 c -64,-127.2 -177.4,-205.1 -236.9,-336.8 29.1,0 58.1,0 87.2,0 66.6,133 171.2,228 262,336.8 -37.4,0 -74.9,0 -112.3,0 z m -249.4,-237 c 39.6,101.7 131,151.6 187.1,237 -148.6,15.4 -203.7,-128.8 -187.1,-237 z m 2793.7,-49.9 c 119.2,72.1 204,178.5 274.4,299.3 -33.8,-7.7 -99,15.9 -112.2,-12.4 57.6,-93 -187.5,-226.3 -162.2,-286.9 z m -374.1,12.5 c 85.6,-5.8 164.2,-18.7 261.9,-12.5 72.1,115 156.1,218.1 261.9,299.3 -54.1,0 -108.1,0 -162.1,0 -46.2,-132.6 -134.1,-223.4 -249.5,-286.8 62.8,111.8 152.7,196.5 237,286.8 -234.4,22.4 -218.5,-205.6 -349.2,-286.8 z m -212.1,0 c 54.4,8 141.1,-16.3 174.7,12.5 2.7,93 114.1,185.1 162.1,274.3 -218.3,10.4 -206.1,-209.6 -336.8,-286.8 z m -374.1,-12.5 c 33.2,0 66.5,0 99.8,0 61.8,104.4 103.7,228.8 236.9,261.9 -31.1,-118.6 -111.7,-187.5 -187.1,-261.9 221.1,-0.7 250.3,190.4 361.7,299.3 -104,-8.2 -241,16.5 -324.2,-12.4 -0.9,-107.4 -130.2,-194.1 -187.1,-286.9 z m -523.8,299.3 c -71.1,-111.8 -167.5,-198.4 -237,-311.8 62.4,0 124.7,0 187.1,0 71.7,94.6 101.5,231.1 236.9,261.9 -9,-108.6 -160.3,-203.8 -137.2,-261.9 58.3,0 116.4,0 174.6,0 -8.1,45.6 27,47.9 25,87.3 90.5,47.8 113.1,226.4 237,199.6 -17.8,-120.4 -190.5,-215.7 -174.6,-286.9 206.1,18.3 230.4,218.5 361.6,311.8 -224.4,0 -449,0 -673.4,0 z m -424.1,-311.8 c 41.6,0 83.1,0 124.7,0 49.6,133.4 152.8,213.1 237,311.8 -241.1,16.6 -233.4,-215.6 -361.7,-311.8 z m -199.5,0 c 45.7,0 91.4,0 137.1,0 41.8,132.8 133.3,216 212.1,311.8 -205.3,-15 -219.4,-221.3 -349.2,-311.8 z m -149.7,-12.4 c 24.9,0 49.9,0 74.8,0 10,23.3 20.9,45.6 25,74.8 65.7,64.2 199.9,189.4 187,249.4 -63.4,-94.4 -194.1,-218.5 -286.8,-324.2 z m 49.9,299.3 c -27.5,-97.3 -177.5,-180 -224.5,-299.3 37.4,0 74.8,0 112.2,0 71.5,132.2 181.7,225.7 286.9,324.2 -67.9,1.4 -129.4,-3.6 -174.6,-24.9 z m 5737.1,1496.7 c -38.8,8.8 -53.6,-69.8 -87.2,-25 -5.1,92.6 130.8,110 74.8,212 -29.9,-15.8 -36.8,-54.6 -87.3,-49.9 10.3,68.7 53.9,104.1 74.8,162.2 -14,31.7 -30.6,60.8 -49.9,87.3 -799.2,10.1 -1590.2,83.5 -2457,37.4 -279.9,-14.9 -654.1,-62.1 -975.3,-47 -360.4,17.1 -733.7,39.5 -1107.4,22.1 -356.2,-16.6 -708.7,36 -1008.2,0 -156.5,-18.8 -475.3,-20.2 -538.5,-12.5 -218.5,26.5 -543.1,-38.9 -668.1,-86.7 -50.6,-495.9 -41.9,-1082.6 -17.9,-1584.6 47.7,-9 93.5,55.2 112.3,0 -14.8,-30 -89.6,-41.4 -62.4,-74.8 56.9,-31.4 124,100 199.6,49.9 -18.5,-43.9 -70.8,-53.9 -99.8,-87.3 97.7,-36.8 112.8,43.1 199.6,49.9 45.9,-25 -66.6,-58 0,-62.4 75.7,-0.6 136.4,79.4 199.5,49.9 -32.7,-13.1 -51.9,-39.6 -74.8,-62.4 192.4,-50 233.5,114.4 361.7,87.3 -14.4,-43.8 -70.7,-45.6 -87.3,-87.3 151,-38.6 179.8,111.1 299.3,62.4 -7.7,-38 -67.1,-24.4 -74.8,-62.4 121,3.9 155.7,160.1 286.8,112.3 -35.5,-47.7 -106.2,-60.1 -137.2,-112.3 137.8,-4.6 195,137.5 311.8,112.3 -20.3,-50.3 -85.2,-56.1 -112.2,-99.8 136.7,-20.3 160.6,72.2 274.4,74.8 5,-50.7 -53.1,-38.4 -62.4,-74.8 137.9,-32.3 179,93.1 274.4,62.4 -5.6,-36 -53.7,-29.5 -62.4,-62.4 130.6,-26.6 140.8,67.1 262,49.9 -3.8,-33.7 -52.5,-22.4 -62.4,-49.9 120.3,-16.3 133,74.9 249.4,62.4 -10.3,-31.3 -43.6,-39.5 -62.3,-62.4 170.8,-41.8 184.9,139.2 324.3,87.3 -17.9,-36.6 -115.6,-58.5 -99.8,-87.3 136.2,-7.3 183.1,141 311.8,99.8 -26,-40.6 -82,-51.1 -112.3,-87.3 134.8,-5.8 170.5,153.7 299.4,112.2 -31.6,-51.5 -102.3,-64 -137.2,-112.2 164.4,-31.3 184.3,148.1 324.2,99.8 -17.2,-45.2 -78.8,-45.9 -99.7,-87.4 125.5,-17.4 115.2,101 249.4,74.9 1.5,-33.6 -113.3,-59.7 -49.9,-74.9 84.6,11.1 94.5,96.8 212,74.9 -14.1,-48.2 -77.7,-47 -99.7,-87.3 139.2,-22.8 169.2,129.9 299.3,74.8 -37,-25.3 -86.1,-38.6 -112.2,-74.8 128.1,-32.4 152.3,105.2 261.9,49.9 -3.8,-33.7 -52.5,-22.4 -62.4,-49.9 92.3,-13.3 110.2,47.8 199.6,37.4 0.2,-18.3 -52.6,-39.5 0,-37.4 111.6,-11.7 145.6,120.2 249.4,74.8 -19.9,-46.6 -84.7,-48.3 -112.2,-87.3 140.5,-27.8 197.9,144.9 311.8,62.4 14.4,23.6 81.9,58.5 99.7,37.4 -9.1,-49.1 -68.2,-48.2 -87.3,-87.3 128.3,-28.3 153.9,111.9 262,62.3 -14.1,-31.6 -62.7,-28.8 -74.9,-62.3 113.9,-22.2 137.9,111.3 224.5,74.8 4,-49.7 -57.7,-33.8 -62.3,-74.8 70.5,-3.8 115.4,83.7 187,37.4 -1.3,-23.6 -41.2,-8.7 -37.4,-37.4 146.5,-32.7 184.1,104.8 311.8,49.9 2.2,-21.4 -70.7,-49.1 -12.4,-49.9 89.9,1.5 119.7,63.2 212,62.3 5.2,-42.7 -37.4,-37.4 -49.9,-62.3 130.2,-18 135.1,89.4 261.9,74.8 -13.6,-40.5 -61,-47.1 -87.3,-74.8 127.3,-31.6 163.6,93.9 261.9,49.9 -12.7,-33.1 -57.6,-33.8 -74.8,-62.4 141,-55.5 183.7,110.7 299.3,74.8 -18.5,-43.9 -70.8,-53.9 -99.7,-87.3 206.1,-7 374.4,2.5 598.6,0 -1.1,82.8 94.8,126 162.1,99.8 -25.3,-53.7 -100.6,-57.4 -124.7,-112.2 87,16.9 189.8,18 286.9,24.9 3,80.1 90,76.2 99.7,149.7 -27.1,39.5 -57.8,-64.1 -99.7,-12.5 19.8,84.1 113.2,94.6 99.7,212 -26.4,21.6 -54.5,-61.3 -112.2,-49.9 0.9,110 162.7,139.4 87.3,249.5 -15.5,-27.9 -92.7,-78 -112.2,-25 20.8,87.3 118.6,97.6 124.7,199.6 -9.7,32.7 -56.4,-66.4 -87.3,-12.5 -13.8,88.9 106.8,108.9 74.8,174.6 -14.5,-23.6 -77.4,-63 -87.3,-49.9 -16.3,70.2 37.5,156.2 112.2,174.6 -7.9,46.2 16.2,124.3 -12.4,149.7 -30.3,-44.6 -57.5,-92.1 -124.7,-99.8 13.5,111.2 110.4,139 137.1,237 -22.3,21.5 -54.5,-53 -99.7,-49.9 -4.8,59.3 48.9,122.1 99.7,162.2 z m -673.4,486.4 c 45.7,0 91.4,0 137.2,0 -13.1,45.1 28.3,144.7 -25,149.7 -26.8,-60.6 -87.3,-87.4 -112.2,-149.7 z m -1708.7,24.9 c 45.7,0 91.4,0 137.2,0 36.3,125.8 146,178.3 212,274.4 -252.1,44.2 -239.4,-176.4 -349.2,-274.4 z m -274.4,-24.9 c 63.2,-0.9 103.3,21.4 174.6,12.4 62.7,99.5 135,189.3 199.6,286.9 -246.3,21.7 -236.7,-212.3 -374.2,-299.3 z m -224.5,0 c 54,0 108.1,0 162.1,0 54,120.6 156.2,193 224.5,299.3 -227.9,-0.7 -231.7,-225.6 -386.6,-299.3 z m 87.3,299.3 c -73.8,-121.6 -174.9,-215.9 -286.9,-299.3 237.1,-8.4 269.8,187.6 386.7,299.3 -33.3,0 -66.5,0 -99.8,0 z m 860.6,-274.4 c 54,0 108.1,0 162.1,0 53.6,116.9 151.2,189.7 224.5,286.9 -257.1,32.5 -252.7,-196.3 -386.6,-286.9 z m -261.9,0 c 62.3,0 124.7,0 187,0 44.1,122.2 148.8,183.8 212.1,286.9 -248.8,20.1 -251.2,-206.2 -399.1,-286.9 z m -4128.3,37.4 c 37.7,107.9 142.8,148.2 187.1,249.5 -143.6,6.2 -202.5,-138.4 -187.1,-249.5 z m 4614.7,-37.4 c 84.9,6 151.9,-6.1 224.5,-12.5 41.1,129.3 136.5,204.4 199.5,311.8 -274.5,33.4 -272.7,-209.5 -424,-299.3 z m -3317.6,286.9 c -31.2,-97.8 -164.9,-200.9 -224.5,-311.8 62.4,0 124.7,0 187.1,0 71.7,94.5 101.5,231 236.9,261.9 -9,-108.7 -160.3,-203.8 -137.2,-261.9 58.3,0 116.4,0 174.6,0 -8.1,45.6 27,47.8 25,87.3 90.5,47.7 113.1,226.3 237,199.5 -17.8,-120.3 -190.5,-215.7 -174.6,-286.8 229.6,-0.6 223.1,300.1 411.5,299.3 -38.8,-123.3 -133.9,-190.4 -199.5,-286.9 33.2,0 66.5,0 99.8,0 61.8,104.5 103.7,228.8 236.9,261.9 -31.1,-118.5 -111.7,-187.5 -187.1,-261.9 235.7,-2.8 248,217.7 386.7,311.8 -353.4,-8.2 -740,16.7 -1072.6,-12.4 z m -411.6,-311.8 c 41.6,0 83.1,0 124.7,0 58.1,137.3 156.7,234 261.9,324.2 -258.8,21.9 -252.7,-221.2 -386.6,-324.2 z m 49.9,324.2 c -57.6,-133.6 -168.7,-213.7 -249.4,-324.2 45.7,0 91.4,0 137.1,0 44.3,138.6 140.9,225 224.5,324.2 -37.4,0 -74.8,0 -112.2,0 z m -124.7,-49.9 c -12.5,0.1 -14.9,-10.1 -25,-12.4 -40.1,-35 -77.9,-98.5 -124.7,-149.7 -38.4,-41.9 -130.3,-87.7 -99.8,-124.7 64.5,-14.6 65,34.8 74.9,74.8 89.6,72.5 151.4,172.9 224.5,261.9 -201.9,-1.8 -387,-20.4 -598.7,-12.4 -71.3,-128.3 -185.2,-214 -249.4,-349.3 29.1,0 58.1,0 87.2,0 83.7,128.5 158.2,266 299.4,336.8 -18.5,-132 -211.6,-246.4 -199.6,-324.3 191.2,37.9 205.3,318 399.1,311.8 -68.5,-110.3 -179.5,-178 -236.9,-299.3 37.4,0 74.8,0 112.2,0 87.7,128.5 171.6,260.8 324.3,324.3 0.7,-16 16,-17.3 12.5,-37.5 z m 4564.8,62.4 c -28.6,-74.1 -100.1,-115.9 -149.7,-174.6 -43.9,-52 -94,-118.6 -87.3,-149.7 184.6,27.5 171.2,252.9 349.2,286.9 -50.3,-120.1 -139.8,-201.1 -224.5,-286.9 37.5,0 74.9,0 112.3,0 85.3,106 156.2,292.8 311.8,286.9 -67.3,-111.4 -167.9,-189.7 -237,-299.3 188.3,40.3 226.9,230.4 349.2,336.7 -141.3,0 -282.7,0 -424,0 z m -249.5,-12.5 c -72.3,-110.6 -137.1,-228.7 -236.9,-311.8 45.7,0 91.4,0 137.2,0 27.5,56.1 76.2,117.5 124.7,174.6 43.3,51.1 130.2,110.9 112.2,149.7 -34.9,-14.9 -86.1,-13.7 -137.2,-12.5 z m -2706.4,-299.3 c 85.6,-5.8 164.2,-18.7 261.9,-12.5 84.9,103.8 158.6,279.8 299.3,286.9 -39.6,-126.7 -138.4,-194.2 -212,-286.9 131.9,-17.7 287.4,-11.9 436.5,-12.4 50,132.9 175.6,190.2 237,311.8 -168.1,-52.2 -185.1,-255.6 -386.6,-274.4 79.6,94.9 179.6,169.6 249.4,274.4 -49.9,0 -99.8,0 -149.7,0 -69.7,-97.4 -146.2,-251.9 -261.9,-261.9 35.1,118.7 145.2,162.5 187.1,274.3 -141.9,7.8 -315.2,-15.8 -436.5,12.5 -57.8,-121 -142.3,-215.3 -224.5,-311.8 z m -212.1,0 c 54.4,8 141.1,-16.3 174.7,12.5 7.2,105.1 128.8,203.6 187,299.3 -54.3,-8 -141,16.3 -174.6,-12.5 34.1,-97.6 -128.5,-211.5 -187.1,-299.3 z m 4115.8,1771.1 c -38.8,8.7 -53.6,-69.8 -87.2,-25 -5.1,92.6 130.8,110 74.8,212 -29.9,-15.8 -36.8,-54.6 -87.3,-49.9 10.3,68.8 53.9,104.1 74.8,162.2 -14,31.7 -30.6,60.8 -49.9,87.3 -2085.3,39 -4404.1,88.4 -6473,-12.5 -142.3,-6.9 -207.8,-9.8 -299.4,-49.9 -50.6,-495.9 -24,-1107 0,-1608.9 60.7,2.1 100.2,90.6 162.2,49.9 -29.7,-53.4 -101.8,-64.5 -112.3,-137.2 72.1,7.2 122.3,101.9 199.6,62.4 -18.5,-43.9 -70.8,-53.9 -99.8,-87.3 97.7,-36.8 112.8,43.1 199.6,49.9 45.9,-25.1 -66.6,-58 0,-62.4 75.7,-0.6 136.4,79.4 199.5,49.9 -32.7,-13.1 -51.9,-39.6 -74.8,-62.4 192.4,-50 233.5,114.4 361.7,87.3 -14.4,-43.8 -70.7,-45.6 -87.3,-87.3 151,-38.6 179.8,111.1 299.3,62.4 -7.7,-38 -67.1,-24.4 -74.8,-62.4 121,3.9 155.7,160.1 286.8,112.3 -35.5,-47.7 -106.2,-60.1 -137.2,-112.3 137.8,-4.6 195,137.5 311.8,112.3 -20.3,-50.3 -85.2,-56.1 -112.2,-99.8 136.7,-20.3 160.6,72.2 274.4,74.8 5,-50.7 -53.1,-38.3 -62.4,-74.8 137.9,-32.2 179,93.1 274.4,62.4 -5.6,-36 -53.7,-29.5 -62.4,-62.4 130.6,-26.6 140.8,67.1 262,49.9 -3.8,-33.7 -52.5,-22.4 -62.4,-49.9 120.3,-16.3 133,74.8 249.4,62.4 -10.3,-31.3 -43.6,-39.5 -62.3,-62.4 170.8,-41.8 184.9,139.2 324.3,87.3 -17.9,-36.6 -115.6,-58.5 -99.8,-87.3 136.2,-7.3 183.1,141 311.8,99.8 -26,-40.6 -82,-51.1 -112.3,-87.3 134.8,-5.8 170.5,153.7 299.4,112.2 -31.6,-51.5 -102.3,-64 -137.2,-112.2 164.4,-31.3 184.3,148.1 324.2,99.8 -17.2,-45.2 -78.8,-45.9 -99.7,-87.3 125.5,-17.5 115.2,101 249.4,74.8 1.5,-33.7 -113.3,-59.7 -49.9,-74.8 84.6,11 94.5,96.7 212,74.8 -14.1,-48.2 -77.7,-47 -99.7,-87.3 139.2,-22.8 169.2,129.9 299.3,74.8 -37,-25.3 -86.1,-38.6 -112.2,-74.8 128.1,-32.4 152.3,105.2 261.9,49.9 -3.8,-33.7 -52.5,-22.4 -62.4,-49.9 63.9,-30.5 110.4,52.7 199.6,37.4 -0.2,-24.8 -34.1,-15.8 -25,-49.9 124.9,-12.5 159.7,131.2 274.4,87.3 -19.9,-46.7 -84.7,-48.3 -112.2,-87.3 140.5,-27.8 197.9,144.9 311.8,62.4 14.4,23.6 81.9,58.5 99.7,37.4 -22.3,-56.7 -89.6,-68.4 -124.7,-112.3 151.6,-30.9 169.4,138.2 299.4,87.3 -27.2,-39.3 -88,-45 -112.3,-87.3 170,-41 245.4,78.8 361.7,49.9 -14,-23.4 -48.4,-26.5 -62.4,-49.9 123.7,-3 200.4,40.8 299.4,62.4 -14.5,-18.5 -14.5,-31.4 0,-49.9 84.1,-4.1 155.5,65 261.9,74.8 8.6,-50.2 -52.5,-30.6 -49.9,-74.8 113.3,3.1 138,94.8 261.9,87.3 -13.6,-40.5 -61,-47.1 -87.3,-74.8 127.3,-31.6 163.6,93.9 261.9,49.9 -1.2,-32.1 -48.7,-17.9 -49.9,-49.9 127.2,-10.8 167.9,65 274.4,74.8 15,-36 -74.8,-56.8 -12.5,-62.3 79.4,12.1 91.9,91 199.6,74.8 -11,-39 -58.8,-41 -74.8,-74.8 149.6,-44 183.9,88.1 274.4,62.3 -2.4,-35.1 -40.7,-34.1 -49.9,-62.3 54.2,0.2 112.2,4.1 149.6,-12.5 37.8,40 101,111.3 174.6,74.8 1.6,-33.6 -113.3,-59.7 -49.9,-74.8 44.5,30.4 59.3,90.4 149.7,74.8 14.4,-40.3 -87.9,-65.3 -24.9,-74.8 16,-17.2 54.1,-12.4 87.3,-12.5 3,80.1 90,76.2 99.7,149.6 -27.1,39.6 -57.8,-64 -99.7,-12.4 19.8,84.1 113.2,94.6 99.7,212 -26.4,21.6 -54.5,-61.3 -112.2,-49.9 0.9,110 162.7,139.4 87.3,249.5 -15.5,-27.9 -92.7,-78 -112.2,-25 20.8,87.3 118.6,97.6 124.7,199.6 -9.7,32.7 -56.4,-66.4 -87.3,-12.5 -13.8,88.9 106.8,109 74.8,174.6 -14.5,-23.6 -77.4,-63 -87.3,-49.9 -16.3,70.2 37.5,156.2 112.2,174.7 -7.9,46 16.2,124.2 -12.4,149.6 -30.3,-44.6 -57.5,-92.1 -124.7,-99.8 13.5,111.2 110.4,139 137.1,237 -22.3,21.5 -54.5,-52.9 -99.7,-49.9 -4.8,59.3 48.9,122.1 99.7,162.2 z m -386.6,-1471.8 c -21.8,-72.2 -8.1,-203.6 -12.4,-324.2 126.7,-34 356.9,23 448.9,-74.9 118.1,-125.5 75.2,-616 62.4,-885.5 -15.3,-321.8 93.8,-757.6 -12.5,-947.9 -68.4,-122.5 -321.6,-82 -486.4,-87.3 -24.4,-71.2 -7.5,-183.7 -12.4,-274.4 189.9,-33.3 360.8,19 448.9,-74.8 122.7,-130.4 74.3,-634.9 62.4,-885.5 -10,-211 81,-887.3 -62.4,-997.8 -124.5,-96 -655.5,-79.5 -857.3,-79.5 -1438.7,0 -2896.8,36.7 -4396.6,36.7 -280,0 -564,7.4 -888.9,7.4 -276.2,0 -711.6,-24.7 -800.7,58.7 -101.1,94.7 -86.7,620.7 -90.7,887.2 -3.4,217.2 -45,762.4 49.8,910.5 66.6,103.8 268.2,97.6 436.6,99.7 -1.3,85.7 8,242.9 24.9,349.2 -130.4,9.4 -341.5,-14.9 -424,62.4 -100.3,93.8 -82.9,555.9 -87.3,848.1 -3.4,221.2 -44.4,763.2 49.8,910.5 69.7,108.8 295,97.1 436.6,99.7 -1.3,85.7 8,242.9 24.9,349.3 -176.4,40.3 -348.5,-26.5 -438.9,58.2 -100.9,94.3 -69.3,657.7 -72.4,864.7 -3.2,207.1 -45.6,792.5 50.3,942.4 88.6,138.3 426.1,97.2 611.6,99.2 248.1,2.6 456.5,7 661.1,16.5 923.6,42.9 1532.6,5.5 2462.8,5.5 781.8,0 1389.5,36.9 2214.8,11 271.7,-8.5 926.9,11.7 1033.6,-101.8 75.9,-80.6 73.9,-260.6 74.9,-448.9 2,-374.2 26.4,-679.6 26.5,-1069.1 0,-204.1 -29.6,-369.7 -163.7,-402.7 -146.5,-35.9 -207.7,65.1 -374.2,37.4" style="fill:#231f20;fill-opacity:1;fill-rule:evenodd;stroke:none" id="path126" />
      <path d="m 16896.5,11286.4 c -24.1,12 -361.1,-60.2 -625.8,-268.8 -264.8,-208.6 -425.3,-425.2 -481.5,-553.6 -56.1,-128.4 -136.4,-321 -160.4,-617.8 -24.1,-296.9 0,-473.4 72.2,-690.1 72.2,-216.6 216.6,-505.5 425.2,-641.9 208.6,-136.4 473.4,-288.8 842.5,-312.9 369.1,-24.1 417.2,-48.1 674,32.1 256.7,80.2 425.2,120.4 585.7,288.9 160.5,168.5 288.9,240.7 377.1,521.5 88.3,280.8 152.5,377.1 144.4,601.8 -8,224.6 24.1,184.5 -80.2,521.5 -104.3,337 -240.7,666 -449.3,786.3 -208.6,120.4 -818.4,361.1 -818.4,361.1 l -505.5,-28.1" style="fill:#56c8f3;fill-opacity:1;fill-rule:nonzero;stroke:none" id="path128" />
      <path d="m 15957.2,8798.3 c 9,7.8 13,11.6 17.3,14.9 26,19.7 52,39.3 78,58.8 -4.9,-33.3 -2.5,-70.1 -16.4,-99 -17.1,-35.3 -13.1,-56.6 16.5,-78.5 15.5,-11.4 28.4,-26.4 43.1,-39 206.4,-176.8 428.2,-325.1 700.3,-382.5 38.1,-8 59.7,-5.4 73.5,36.7 9.2,27.8 31.7,52.3 52.4,74.4 7.8,8.4 27.3,5.9 41.4,8.3 2.1,-12.6 8.5,-26.5 5.3,-37.7 -9.1,-32.4 -22.1,-63.8 -35.4,-100.4 38,-4.3 71.9,-8.2 106.3,-12.2 25.8,58.6 17.8,135.6 119,153.5 -13.6,-60 -24.9,-109.7 -35.7,-157.3 71.2,0 143.8,0 216.5,0 -4.3,5.7 -8.5,11.3 -12.7,17 25.9,29.3 51.9,58.6 77.8,87.9 23.2,-28.1 46.4,-56.3 76.5,-92.8 151.5,3.9 300.4,68.2 448.7,135 31.3,14.1 48.6,26 37.2,69 -6,22.3 16.7,63.3 38.5,79.4 34,25 48.2,-13.1 63.3,-37.3 3.9,-6.3 9.5,-11.7 14.1,-17.2 122,68 222.5,156.4 296,274.2 89.3,143.3 163.2,293.3 218.1,453.8 88.6,259 125.5,522.7 85.3,794.2 -23.7,159.8 -83.3,308.5 -158,450 -81.9,-18.6 -134.7,-97.4 -232.7,-90.9 31.6,102 123.1,127.6 193.4,183.7 -32.2,44.9 -63.3,88.3 -95.5,133.2 -42,-31.6 -77.2,-62.1 -116.4,-85.9 -18.8,-11.4 -45.1,-10.4 -68,-15 7.3,23.9 8.3,53.3 23.3,70.5 29.9,34.3 67.4,62 108.2,98.1 -236.5,275.6 -538.3,425.7 -891.4,486.5 -28.7,-56.6 -33.8,-126.4 -98.9,-152.2 -6.5,2.5 -12.9,5 -19.4,7.6 12.1,50.8 24.2,101.7 37.3,156.8 -19.1,3 -42.6,6.8 -62,9.9 -17.1,-34.8 -28.4,-63.7 -45.1,-89 -6.4,-9.7 -25,-11.3 -38.1,-16.5 -2.6,12.2 -8.8,25.1 -7,36.6 3.7,23.6 11.8,46.5 18.9,73.1 -293.2,33.3 -553.1,-42.1 -790.2,-189.7 -4.6,-36.2 -7.3,-82.6 -29.3,-95.2 -21.9,-12.5 -63.2,8.7 -96,15.1 -244.6,-114.9 -378.6,-336.5 -500.3,-576.7 27.6,-7.8 47.5,-8.4 60.1,-18.2 19,-15 32.9,-36.5 49,-55.2 -21.7,-15.9 -41.8,-34.9 -65.6,-46.5 -11.6,-5.6 -30.8,-0.2 -45,4.7 -36.5,12.6 -50.4,-0.9 -49.8,-26.9 20,-21.8 47.1,-38.9 45.4,-52.6 -2,-17.3 -27,-44.6 -42.9,-45.2 -44.7,-1.7 -48.8,-32.3 -55.2,-61.5 -46.8,-211.4 -64,-424.8 -35.8,-640.3 6,-45.7 7.7,-102.4 35,-132.6 56.6,-62.3 66.2,-137.8 89.6,-210.6 20.7,-64.4 44.4,-127.9 67.9,-194.8 44.4,30.3 62.1,83.7 132,60.5 -29.7,-46.3 -55.9,-87.2 -85.1,-133 11.8,-16.9 26.7,-38.1 42.7,-61 z M 17205.3,8105 c -288.9,-4 -532.3,21.6 -752.3,128.1 -152.8,73.9 -294.8,178.5 -425.1,288.9 -313,265.2 -444.1,627.7 -471.6,1021.4 -34.9,499.7 135,940.7 458.3,1320.8 130.2,153.1 307.5,245.3 479.2,342.9 353.3,200.7 726.4,213.2 1113.8,126.8 269.2,-59.9 510,-174.8 711.2,-359.7 98.4,-90.5 184.9,-200.5 253.2,-315.5 109.8,-184.9 193.5,-384 226.1,-599.8 30.8,-203.7 17,-407.4 -29.4,-605.8 -59.2,-253.4 -156.6,-492.7 -298.6,-713.9 -139.3,-217.1 -341.1,-355.5 -563.1,-470.5 -233.5,-120.9 -483.6,-171.6 -701.7,-163.7" style="fill:#231f20;fill-opacity:1;fill-rule:nonzero;stroke:none" id="path130" />
      <path d="m 16556.1,10651.2 c -2.3,-5.5 -592.8,-615.4 -607.4,-663.8 -14.5,-48.4 203.4,-58.1 203.4,-58.1 0,0 203.3,20 193.6,-33.6 -9.7,-53.6 24.2,-1016.9 24.2,-1016.9 0,0 396.9,-43.8 421.1,-24.3 24.2,19.5 63,239 63,239 v 850.3 l 431.9,9.7 -698.2,725.2 -31.6,-27.5" style="fill:#ffffff;fill-opacity:1;fill-rule:nonzero;stroke:none" id="path132" />
      <path d="m 18025.2,10646.5 c -14.6,19.4 -506.3,-27.7 -506.3,-27.7 l -20.5,-1036 -314.5,-51.2 576.1,-677.1 465.7,408.3 182.9,283.2 -363.1,25.9 -20.3,1074.6" style="fill:#ffffff;fill-opacity:1;fill-rule:nonzero;stroke:none" id="path134" />
      <path d="m 17760.9,8922.8 c 99.8,88.1 203.4,172.2 298.1,265.3 93.6,92 178.2,193.1 277,301.5 -40.5,0 -62.4,-2.3 -83.7,0.4 -60.5,7.9 -102.8,-8.6 -128.7,-69.9 -11.9,-28.2 -44.3,-47.8 -67.3,-71.2 -7.1,4.7 -14.2,9.5 -21.3,14.3 11.3,40.4 22.5,80.8 33.8,121.1 -101.8,20.6 -101.8,20.6 -102.7,132.3 -0.2,22.2 -0.3,44.3 -0.3,66.5 -0.1,87.7 0,175.4 0,266.9 -34.3,-12.2 -59.9,-21.4 -85.6,-30.5 -4.2,5.3 -8.5,10.6 -12.7,15.9 16.6,23.2 28.6,52.9 50.7,68.1 48.4,33.2 53.8,75.9 43.1,128.3 -17.7,1.1 -35.8,2.2 -68.4,4.2 141.1,148.1 90.5,309.2 69.9,470.6 -120.2,0 -231,1 -341.7,-1.4 -13.9,-0.3 -38.7,-18.8 -39.1,-29.4 -3.1,-93.5 -1.8,-187.2 -1.8,-268.5 39.9,-10.7 62.8,-16.8 85.7,-22.9 -10.6,-24.7 -20.4,-49.8 -32.4,-73.8 -4.3,-8.5 -16.7,-12.9 -20.8,-21.4 -11.1,-23 -19.7,-47.3 -29.3,-71 30.7,-0.8 44.8,8.3 60,11 16.3,2.8 33.7,-0.4 50.6,-1 -2.6,-18.6 -0.1,-40.3 -9,-55 -12.1,-20 -30.6,-38.8 -50.7,-50.7 -39.9,-23.7 -51,-56.7 -50.8,-100.7 0.4,-98.8 -3.2,-197.5 -4.6,-296.2 -1.5,-97.8 -50.8,-149.2 -147.3,-151.1 -47,-1 -94.1,-0.2 -141.1,-0.2 -1.5,-5.5 -3.1,-10.9 -4.6,-16.4 40.8,-44.9 81.6,-89.8 123,-135.4 17.9,14.1 27.6,26.3 40.1,30.6 18.8,6.5 39.6,7.5 59.5,10.9 -1.8,-20.9 -3,-41.8 -5.7,-62.5 -0.8,-5.4 -5.5,-10.9 -9.6,-15.1 -31.7,-32.4 -14.8,-51 16,-67.8 22.6,24.4 41,48.8 64.1,67.4 11.9,9.6 32.2,8.9 48.7,12.9 1.8,-16.5 9.7,-35.6 4.1,-48.9 -14.9,-34.8 -35.7,-67.1 -57.6,-106.7 26,-29.4 54.5,-61.7 84.1,-95.1 13.5,10.9 20.2,19.6 29,22.9 27.9,10.5 56.5,18.9 84.9,28.2 -4.8,-29.8 -0.3,-66.5 -16.2,-87.8 -39.6,-52.7 -2.3,-78.8 10.6,-88.7 z m -310.7,691 c 0,47 0.1,91.1 0,135.2 -0.6,262.1 -1.7,524.2 -1.2,786.2 0,33.9 5.4,68.5 13.1,101.6 13.1,55.9 65.7,97.7 122.8,97.8 145.1,0.3 290.3,-0.1 435.4,-2.1 78.4,-1.1 85.6,-9.5 85.7,-88.9 0.3,-320.5 0,-641 0.2,-961.6 0,-15.5 1.8,-31.1 3,-49.1 116.4,0 229,2.2 341.5,-0.8 64.7,-1.7 83.6,-31.5 47.6,-85 -62.8,-93.3 -128.9,-185.8 -204.5,-268.7 -141.4,-154.6 -290.2,-302.4 -436.7,-452.3 -19.6,-20.1 -54.3,-54.8 -78.1,-69.5 -29.4,-18.3 -131,75 -155.7,102.8 -188.6,212.3 -376,425.7 -561.5,640.7 -15.2,17.5 -18.7,48.7 -19.9,73.9 -1.8,36.2 18.6,42.7 55.1,41.4 114.3,-4.2 228.8,-1.6 353.2,-1.6" style="fill:#231f20;fill-opacity:1;fill-rule:nonzero;stroke:none" id="path136" />
      <path d="m 16402,8907.1 c 115.2,0 221.8,-1 328.3,1.3 12.3,0.2 34.3,18.2 34.7,28.5 2.8,85.5 1.6,171.1 1.6,262.6 -35.1,-20.3 -59.4,-34.3 -92.2,-53.3 -10.9,68.2 20.7,109 52.6,145.3 49.9,56.8 41.7,119.3 36.1,185.7 -31.6,-16 -58,-29.4 -84.4,-42.7 -5.2,5.2 -10.4,10.5 -15.6,15.7 15.4,28.3 24.7,63.4 47.3,83.6 70.8,63.2 85.2,141.6 77.8,229.9 -2.9,34 -0.6,68.4 -0.4,102.7 0.4,105.2 49.3,155.7 152.9,157.2 45.2,0.7 90.4,0.2 135.6,0.2 1.7,5.2 3.4,10.4 5.1,15.7 -60.8,67 -121.7,134.1 -173.8,191.6 -42.1,-11.3 -71.4,-19.2 -100.7,-27.1 3.6,29.3 10.3,58.5 10,87.7 -0.2,23.2 -8.8,46.3 -14.5,73.4 -19.6,-9.7 -24.7,-12.8 -30.3,-14.8 -28.3,-10.1 -56.6,-19.9 -85,-29.9 4.4,29.5 9.3,59 13.1,88.6 2.3,17.8 11,41.4 3,52.6 -34.4,48.6 -73.9,93.6 -115.5,144.7 -184.2,-196.1 -366.3,-390 -556.9,-592.9 58.7,-9.1 92.8,-8.6 122,32.3 16.1,22.7 49.9,32.9 75.8,48.7 1.6,-25.5 3.2,-51 5.2,-81.6 27.1,-2.5 60.6,-13.6 89.9,-6.6 68.8,16.4 75.5,-23 75.8,-72.5 0.5,-63.8 0.1,-127.6 0.1,-192 30.9,2.5 52.9,4.2 73.1,5.8 22.8,-77.7 -100.5,-87.4 -65.3,-162.3 22.8,2.2 42.9,4 63,5.9 7.4,-4.2 14.8,-8.5 22.3,-12.8 -122.2,-98.2 -90.2,-224 -90.9,-347.6 24.9,6.5 43,11.2 77,20.1 -12.4,-34.7 -14.6,-63.4 -29.9,-79.5 -72.9,-76.9 -48.9,-167.5 -46.9,-264.2 z m 508.5,977.2 c 0,-176.5 0.7,-347.6 -0.2,-518.8 -0.7,-153.1 -1,-306.4 -5.7,-459.5 -2.5,-83.2 -54.1,-127.2 -136.7,-127 -141.1,0.4 -282.2,0 -423.3,1.9 -74.7,1 -83.6,11.6 -83.7,84.6 -0.2,318.5 -0.2,637.1 -0.6,955.6 0,13.7 -2.2,27.4 -3.8,44.3 -114.9,0 -227.4,-2 -339.7,0.8 -66.9,1.6 -85.2,32.2 -47.1,89 59.4,88.3 121.8,176.1 193.7,254.3 145.9,158.7 298.6,311.2 449.4,465.4 19.5,20.1 42,38.3 66,52.6 30.4,18.1 499.8,-487.2 706.1,-710.3 18.9,-20.5 32,-50.4 38,-78.1 8.9,-41.1 -5.2,-59.5 -56.1,-56.7 -113.9,6.1 -228.4,1.9 -356.3,1.9" style="fill:#231f20;fill-opacity:1;fill-rule:nonzero;stroke:none" id="path138" />
      <path d="m 3314.78,2660.1 c 0,19.7 0,39.4 0,59.1 321.98,238.3 602.18,518.3 1120.49,560.2 -285.21,-276 -698.94,-577.5 -1120.49,-619.3" style="fill:#231f20;fill-opacity:1;fill-rule:evenodd;stroke:none" id="path140" />
      <path d="m 5102.21,3236.7 c -8.63,-223.8 -316.13,-271.4 -471.81,-353.9 -173.7,-92 -348.41,-254 -530.72,-206.3 208.16,312.7 532.58,509.2 1002.53,560.2" style="fill:#231f20;fill-opacity:1;fill-rule:evenodd;stroke:none" id="path142" />
      <path d="m 13350.1,3263.6 c -348.4,-251.2 -770,-429.2 -1238.4,-560.3 244.8,337.6 745.9,567.7 1238.4,560.3" style="fill:#231f20;fill-opacity:1;fill-rule:evenodd;stroke:none" id="path144" />
      <path d="m 17507.6,3263.6 c -257.9,-243.4 -664.6,-338 -1061.5,-442.3 213.4,268.3 659.9,460.4 1061.5,442.3" style="fill:#231f20;fill-opacity:1;fill-rule:evenodd;stroke:none" id="path146" />
      <path d="m 14205.2,3263.6 c -300.9,-288.8 -776.5,-403 -1238.5,-530.8 257.9,331.9 710.1,469.3 1238.5,530.8" style="fill:#231f20;fill-opacity:1;fill-rule:evenodd;stroke:none" id="path148" />
      <path d="m 12465.5,3204.5 c -334.2,-255.4 -801.3,-378.1 -1267.9,-501.2 232.6,338.4 773.5,522.6 1267.9,501.2" style="fill:#231f20;fill-opacity:1;fill-rule:evenodd;stroke:none" id="path150" />
      <path d="m 14912.9,3204.5 c -349.6,-210.7 -756.5,-363.9 -1179.5,-501.2 192.7,349 686.9,550.1 1179.5,501.2" style="fill:#231f20;fill-opacity:1;fill-rule:evenodd;stroke:none" id="path152" />
      <path d="m 15856.4,3175.2 c -347.3,-214.1 -836.8,-439.7 -1238.4,-501.3 252.2,294 796,591.8 1238.4,501.3" style="fill:#231f20;fill-opacity:1;fill-rule:evenodd;stroke:none" id="path154" />
      <path d="m 16564.1,3204.5 c -273.7,-218.9 -712.3,-426.1 -1061.5,-471.7 229.2,263.4 659.3,479.2 1061.5,471.7" style="fill:#231f20;fill-opacity:1;fill-rule:evenodd;stroke:none" id="path156" />
      <path d="m 19527.7,3263.6 c -348.4,-251.2 -770,-429.2 -1238.4,-560.3 244.8,337.6 745.9,567.7 1238.4,560.3" style="fill:#231f20;fill-opacity:1;fill-rule:evenodd;stroke:none" id="path158" />
      <path d="m 23685.2,3263.6 c -257.9,-243.4 -664.6,-338 -1061.5,-442.3 213.4,268.3 659.9,460.4 1061.5,442.3" style="fill:#231f20;fill-opacity:1;fill-rule:evenodd;stroke:none" id="path160" />
      <path d="m 20382.8,3263.6 c -300.9,-288.8 -776.5,-403 -1238.5,-530.8 257.9,331.9 710.1,469.3 1238.5,530.8" style="fill:#231f20;fill-opacity:1;fill-rule:evenodd;stroke:none" id="path162" />
      <path d="m 18613.1,3204.5 c -334.2,-255.4 -801.3,-378.1 -1267.9,-501.2 232.6,338.4 773.5,522.6 1267.9,501.2" style="fill:#231f20;fill-opacity:1;fill-rule:evenodd;stroke:none" id="path164" />
      <path d="m 21090.5,3204.5 c -349.6,-210.7 -756.6,-363.9 -1179.5,-501.2 192.7,349 686.9,550.1 1179.5,501.2" style="fill:#231f20;fill-opacity:1;fill-rule:evenodd;stroke:none" id="path166" />
      <path d="m 22034,3175.2 c -347.3,-214.1 -836.8,-439.7 -1238.4,-501.3 252.2,294 796,591.8 1238.4,501.3" style="fill:#231f20;fill-opacity:1;fill-rule:evenodd;stroke:none" id="path168" />
      <path d="m 22741.7,3204.5 c -273.8,-218.9 -712.3,-426.1 -1061.5,-471.7 229.2,263.4 659.3,479.2 1061.5,471.7" style="fill:#231f20;fill-opacity:1;fill-rule:evenodd;stroke:none" id="path170" />
      <path d="m 5890.1,3145.6 c -234.43,-189.8 -622.44,-377.9 -943.58,-383.3 172.48,238.3 614.07,495.9 943.58,383.3" style="fill:#231f20;fill-opacity:1;fill-rule:evenodd;stroke:none" id="path172" />
      <path d="m 8396.39,3145.6 c -261.18,-190.9 -573.23,-331 -914.07,-442.3 142.97,291.2 507.41,512.7 914.07,442.3" style="fill:#231f20;fill-opacity:1;fill-rule:evenodd;stroke:none" id="path174" />
      <path d="m 7511.85,3145.6 c -333.43,-267.1 -839.67,-515.5 -1297.39,-560.3 291.86,327.5 736.84,501.7 1297.39,560.3" style="fill:#231f20;fill-opacity:1;fill-rule:evenodd;stroke:none" id="path176" />
      <path d="m 11256.6,3086.6 c -394.9,-136.9 -843.8,-373.5 -1238.5,-412.7 237.3,276.6 794.6,538.2 1238.5,412.7" style="fill:#231f20;fill-opacity:1;fill-rule:evenodd;stroke:none" id="path178" />
      <path d="m 6627.24,3086.6 c -272.23,-249.8 -731.25,-466.3 -1090.95,-530.7 237.01,285 655.25,542.3 1090.95,530.7" style="fill:#231f20;fill-opacity:1;fill-rule:evenodd;stroke:none" id="path180" />
      <path d="M 9546.39,3086.6 C 9145.13,2849 8635.87,2719.3 8160.52,2555.9 c 256.52,363.5 851.91,542.7 1385.87,530.7" style="fill:#231f20;fill-opacity:1;fill-rule:evenodd;stroke:none" id="path182" />
      <path d="m 10165.6,3057.2 c -190.71,-251.8 -526.57,-358.1 -884.59,-442.4 183.68,258.7 497.85,386.9 884.59,442.4" style="fill:#231f20;fill-opacity:1;fill-rule:evenodd;stroke:none" id="path184" />
    </g>
  </g>
</svg>
