<?xml version="1.0" encoding="UTF-8" standalone="no"?>
<!-- Created with Inkscape (http://www.inkscape.org/) -->

<svg version="1.1" id="svg2" xml:space="preserve" width="2734.6667" height="2734.6667" viewBox="0 0 2734.6667 2734.6667" sodipodi:docname="shutterstock_1538849609.eps"
  xmlns:inkscape="http://www.inkscape.org/namespaces/inkscape"
  xmlns:sodipodi="http://sodipodi.sourceforge.net/DTD/sodipodi-0.dtd"
  xmlns="http://www.w3.org/2000/svg"
  xmlns:svg="http://www.w3.org/2000/svg">
  <defs id="defs6">
    <linearGradient x1="0" y1="0" x2="1" y2="0" gradientUnits="userSpaceOnUse" gradientTransform="matrix(4237.55,11039.2,11039.2,-4237.55,8735.02,6776)" spreadMethod="pad" id="linearGradient28">
      <stop style="stop-opacity:1;stop-color:#2a9942" offset="0" id="stop24" />
      <stop style="stop-opacity:1;stop-color:#96cc21" offset="1" id="stop26" />
    </linearGradient>
  </defs>
  <sodipodi:namedview id="namedview4" pagecolor="#ffffff" bordercolor="#666666" borderopacity="1.0" inkscape:pageshadow="2" inkscape:pageopacity="0.0" inkscape:pagecheckerboard="0" />
  <g id="g8" inkscape:groupmode="layer" inkscape:label="ink_ext_XXXXXX" transform="matrix(1.3333333,0,0,-1.3333333,0,2734.6667)">
    <g id="g10" transform="scale(0.1)">
      <path d="M 5,20505 H 20505" style="fill:#ffffff;fill-opacity:1;fill-rule:nonzero;stroke:none" id="path12" />
      <path d="M 20505,5 H 5" style="fill:#ffffff;fill-opacity:1;fill-rule:nonzero;stroke:none" id="path16" />
      <path d="M 16650.4,16865.9 C 16773.8,11701.8 14722.5,9323.1 10440.1,9801.8 9732.97,9073.7 9246.3,8039.9 10215.3,6090.7 h -518.08 c -207.14,1886 -86.99,3125.2 -335.6,3558.8 C 6521.06,9157.9 6730.19,10784 5898.43,12580 c 2465.51,298.3 3680.4,-590.7 3611.68,-2698.4 -775.35,798.6 -1533.57,1451.2 -2273.89,1951.4 950.65,-762.2 1711.88,-1470.2 2265.66,-2119 l 103.24,-1459.1 c 80.58,564.1 471.88,1335.1 640.18,1570.3 1835.7,1466.9 3361.4,2927.4 4563.2,4381.4 -511.6,-525.2 -4504.3,-4399.2 -4996.17,-4317 -587.1,6389.1 2831.97,5571.8 6838.07,6976.3" style="fill:url(#linearGradient28);fill-opacity:1;fill-rule:evenodd;stroke:none" id="path30" />
      <path d="m 12109.9,6001.1 c -73.3,-546.4 -1009.4,-978.5 -2153.66,-978.5 -1144.27,0 -2080.41,432.1 -2153.7,978.5 h 4307.36" style="fill:#612a2e;fill-opacity:1;fill-rule:evenodd;stroke:none" id="path32" />
      <path d="m 9979.26,4122.1 c 1169.84,0 2123.94,201.7 2123.94,449 0,247.3 -954.1,449 -2123.94,449 -1169.84,0 -2123.95,-201.7 -2123.95,-449 0,-247.3 954.11,-449 2123.95,-449" style="fill:#e7e7e6;fill-opacity:1;fill-rule:evenodd;stroke:none" id="path34" />
      <path d="m 11746.3,5837.4 c -257.6,-360.5 -701.4,-574.2 -1312.3,-656.2 239.5,31.6 602.3,179.8 1312.3,656.2" style="fill:#cc5629;fill-opacity:1;fill-rule:evenodd;stroke:none" id="path36" />
    </g>
  </g>
</svg>
