<svg id="ptenginelogo_svg__\u56FE\u5C42_1"
    xmlns="http://www.w3.org/2000/svg"
    xmlns:xlink="http://www.w3.org/1999/xlink" x="0" y="0" viewBox="0 0 126 33" xml:space="preserve" class="navbar__Logo-sc-dd0y7z-7 hNOuOC">
    <style>.ptenginelogo_svg__st2{fill:#fff}</style>
    <circle cx="16.5" cy="16.5" r="16.5" fill="#00a92e"></circle>
    <defs>
        <path id="ptenginelogo_svg__SVGID_1_" d="M6 7h21.9v18H6z"></path>
    </defs>
    <clipPath id="ptenginelogo_svg__SVGID_00000051366832126402715580000012882000091441303451_">
        <use xlink:href="#ptenginelogo_svg__SVGID_1_" overflow="visible"></use>
    </clipPath>
    <g clip-path="url(#ptenginelogo_svg__SVGID_00000051366832126402715580000012882000091441303451_)">
        <path class="ptenginelogo_svg__st2" d="M26.6 22.4c-1 0-2-.4-2.7-1.1-.7-.7-1.1-1.7-1.1-2.7v-3.9h2.5c.2 0 .3 0 .5-.1s.3-.2.4-.3c.1-.1.2-.3.3-.4.1-.2.1-.3.1-.5 0-.3-.1-.7-.4-.9-.2-.2-.6-.4-.9-.4h-2.5V8.3c0-.2 0-.3-.1-.5s-.2-.3-.3-.4c-.1-.1-.3-.2-.4-.3-.2-.1-.4-.1-.6-.1-.3 0-.7.1-.9.4-.2.2-.4.6-.4.9v10.4c0 1.7.7 3.3 1.9 4.5 1.2 1.2 2.8 1.9 4.5 1.9.3 0 .7-.1.9-.4.2-.2.4-.6.4-.9 0-.3-.1-.7-.4-.9-.2-.3-.5-.5-.8-.5zM12.4 7c-1.7 0-3.3.7-4.5 1.9C6.7 10.1 6 11.7 6 13.4v10.3c0 .3.1.7.4.9.2.3.6.4.9.4.3 0 .7-.1.9-.4.2-.2.4-.6.4-.9v-5.2c1.1.8 2.5 1.3 3.9 1.3 1.7 0 3.3-.7 4.5-1.9 1.2-1.2 1.9-2.8 1.9-4.5 0-1.7-.7-3.3-1.9-4.5C15.8 7.7 14.1 7 12.4 7zm0 10.3c-1 0-2-.4-2.7-1.1-.7-.7-1.1-1.7-1.1-2.7s.4-2 1.1-2.7c.7-.7 1.7-1.1 2.7-1.1 1 0 2 .4 2.7 1.1.7.7 1.1 1.7 1.1 2.7 0 1-.4 2-1.1 2.7-.7.7-1.6 1.1-2.7 1.1z"></path>
    </g>
    <path d="M43 14.6c0-3.1 2.5-5.6 5.7-5.6 3.1 0 5.7 2.5 5.7 5.6 0 3.1-2.5 5.6-5.7 5.6-1.3 0-2.4-.4-3.4-1.1v4.4c0 .6-.5 1.1-1.1 1.1-.6 0-1.1-.5-1.1-1.1v-8.9zm2.3 0c0 1.8 1.5 3.3 3.4 3.3s3.4-1.5 3.4-3.3c0-1.8-1.5-3.3-3.4-3.3-1.9-.1-3.4 1.4-3.4 3.3zm53.4-4.2c0-.8.6-1.4 1.4-1.4.8 0 1.4.6 1.4 1.4 0 .8-.6 1.4-1.4 1.4-.8 0-1.4-.6-1.4-1.4zm-7.1 3c-3.1 0-5.7 2.5-5.7 5.6 0 3.1 2.5 5.6 5.7 5.6 1.3 0 2.4-.4 3.4-1.1 0 1.8-1.5 3.3-3.4 3.3-.6 0-1.1.5-1.1 1.1 0 .6.5 1.1 1.1 1.1 3 0 5.5-2.4 5.6-5.3v-4-.2-.5c0-3.1-2.5-5.6-5.6-5.6zm0 8.9c-1.9 0-3.4-1.5-3.4-3.3 0-1.8 1.5-3.3 3.4-3.3S95 17.2 95 19c0 1.8-1.5 3.3-3.4 3.3zm8.5-8.9c-.6 0-1.1.5-1.1 1.1v8.9c0 .6.5 1.1 1.1 1.1.6 0 1.1-.5 1.1-1.1v-8.9c0-.6-.5-1.1-1.1-1.1zM62.2 19c0-3.1 2.5-5.6 5.7-5.6 3.1 0 5.6 2.4 5.6 5.4v.2c0 .6-.5 1.1-1.1 1.1h-7.7c.5 1.3 1.7 2.2 3.2 2.2 1.1 0 2.1-.3 2.6-.8.4-.4 1.2-.4 1.6 0 .4.4.4 1.1 0 1.6-1.3 1.2-3.2 1.4-4.2 1.4-3.2.1-5.7-2.4-5.7-5.5zm8.9-1.1c-.5-1.3-1.7-2.2-3.2-2.2-1.5 0-2.7.9-3.2 2.2h6.4zm53.3 2.2c.6 0 1.1-.5 1.1-1.1v-.2c-.1-3-2.6-5.4-5.6-5.4-3.1 0-5.7 2.5-5.7 5.6 0 3.1 2.5 5.6 5.7 5.6 1 0 2.9-.2 4.2-1.4.4-.4.4-1.1 0-1.6-.4-.4-1.2-.4-1.6 0-.5.5-1.5.8-2.6.8-1.5 0-2.7-.9-3.2-2.2h7.7zm-4.6-4.4c1.5 0 2.7.9 3.2 2.2h-6.4c.5-1.3 1.8-2.2 3.2-2.2zM108 13.4c-2.8 0-5.1 2.2-5.1 5v5c0 .6.5 1.1 1.1 1.1s1.1-.5 1.1-1.1v-5c0-1.5 1.3-2.8 2.8-2.8 1.6 0 2.8 1.2 2.8 2.8v5c0 .6.5 1.1 1.1 1.1s1.1-.5 1.1-1.1v-5c.2-2.7-2.1-5-4.9-5zm-33.4 5c0-2.8 2.3-5 5.1-5s5.1 2.2 5.1 5v5c0 .6-.5 1.1-1.1 1.1-.6 0-1.1-.5-1.1-1.1v-5c0-1.5-1.3-2.8-2.8-2.8-1.6 0-2.8 1.2-2.8 2.8v5c0 .6-.5 1.1-1.1 1.1-.6 0-1.1-.5-1.1-1.1v-5zm-13.5 3.9c-1.9 0-3.4-1.5-3.4-3.3v-3.3h2.2c.6 0 1.1-.5 1.1-1.1 0-.6-.5-1.1-1.1-1.1h-2.2v-3.3c0-.6-.5-1.1-1.1-1.1-.6 0-1.1.5-1.1 1.1V19c0 3.1 2.5 5.6 5.7 5.6.6 0 1.1-.5 1.1-1.1-.1-.7-.6-1.2-1.2-1.2z" fill-rule="evenodd" clip-rule="evenodd" fill="#091e42"></path>
</svg>