<?xml version="1.0" encoding="utf-8"?>
<!-- Generator: Adobe Illustrator 19.2.1, SVG Export Plug-In . SVG Version: 6.00 Build 0)  -->
<svg version="1.1" id="layer" xmlns="http://www.w3.org/2000/svg" xmlns:xlink="http://www.w3.org/1999/xlink" x="0px" y="0px"
	 viewBox="0 0 652 652" style="enable-background:new 0 0 652 652;" xml:space="preserve">
<style type="text/css">
	.st0{fill:#F8991D;}
	.st1{fill:#8B8C8E;}
</style>
<g>
	<path class="st0" d="M508.2,270.3h-22.5l-38.2,76.2l-38.1-76.2h-22.1c23.9,47.8,60.5,121,60.5,121L508.2,270.3z"/>
	<path class="st0" d="M333.6,288.3c18.7,0,34.4,12.9,38.7,30.3h-77.4C299.2,301.3,314.9,288.3,333.6,288.3 M333.6,368
		c-18.7,0-34.4-12.9-38.7-30.2h97.7v-9.6c0-32.5-26.5-59-59-59c-32.5,0-59,26.5-59,59c0,32.5,26.5,59,59,59
		c22.4,0,42.3-12.4,52.3-31.5h-23.4C355.1,363.4,344.8,368,333.6,368"/>
	<path class="st0" d="M561.4,368.5c-22,0-39.9-17.9-39.9-39.8c0-22,17.9-39.8,39.9-39.8c21.8,0,39.5,17.5,39.8,39.2v1.3
		C600.9,350.9,583.2,368.5,561.4,368.5 M620.5,328.6c0-0.2,0-0.4,0-0.7v-57.3h-19.2v14.5c-10.5-9.6-24.5-15.6-39.8-15.6
		c-32.5,0-59,26.5-59,59c0,32.5,26.5,59,59,59c15.4,0,29.3-5.9,39.8-15.6v14.7h19.2v-57.5C620.4,329.1,620.5,328.8,620.5,328.6"/>
	<path class="st0" d="M202.5,288.3c18.7,0,34.4,12.9,38.7,30.3h-77.4C168.2,301.3,183.9,288.3,202.5,288.3 M202.5,368
		c-18.7,0-34.4-12.9-38.7-30.2h97.7v-9.6c0-32.5-26.5-59-59-59c-32.6,0-59,26.5-59,59c0,32.5,26.5,59,59,59
		c22.4,0,42.2-12.4,52.2-31.5h-23.4C224.1,363.4,213.8,368,202.5,368"/>
</g>
<polygon class="st0" points="20.5,252.4 44.2,252.4 89.3,343.1 134.1,252.4 157.4,252.4 89.1,391.1 "/>
<polygon class="st0" points="20.5,252.4 44.2,252.4 89.3,343.1 134.1,252.4 157.4,252.4 89.1,391.1 "/>
<g>
	<path class="st1" d="M58.1,252.6L89,314.2l30.8-61.6C119.8,252.6,58.1,252.5,58.1,252.6"/>
</g>
</svg>
